<svg xmlns="http://www.w3.org/2000/svg" viewBox="0 0 350 93.29"><defs><style>.cls-1{fill:#dfa940;}</style></defs><g id="Layer_2" data-name="Layer 2"><g id="Layer_1-2" data-name="Layer 1"><path class="cls-1" d="M54.28,38.08V22.43L37.56,12v69.3L54.28,70.83V55.09a.75.75,0,0,1,.75-.75H74.49a.64.64,0,0,1,.64.64v14.5a1.1,1.1,0,0,1-.5.92L54.28,83.12,38.39,93a1.66,1.66,0,0,1-1.77,0L.81,70.66A1.76,1.76,0,0,1,0,69.18V24.11a1.76,1.76,0,0,1,.81-1.48L36.67.25a1.72,1.72,0,0,1,1.78,0l15.83,9.91L74.63,22.88a1.08,1.08,0,0,1,.5.91v14.4a.64.64,0,0,1-.64.64H55.09a.76.76,0,0,1-.81-.69Z"/><path d="M96.61,48.62V44.44c0-12.21,7.51-18.24,23.38-18.31,15.35.07,23.06,5.33,23.06,15.55v.42h-10.2v-.42c-.08-6.09-4.48-8.48-12.86-8.48-8.77,0-13.16,3-13.16,11.18v4.3c0,8.37,4.41,11.42,13.16,11.42,8.38,0,12.86-2.39,12.86-8.55v-.36h10.2v.36c0,10.34-7.64,15.55-23.06,15.61C104.11,67.1,96.61,61.07,96.61,48.62Z"/><path d="M171.85,26.82H161.63l-19,39.66h9.85L156,59,159,52.59,166.8,35.9l7.77,16.69,3,6.4,3.51,7.51h9.77Z"/><path d="M237.1,54.66V55c0,7-5.66,11.48-19,11.48H195V26.85h24.13c10.5,0,14.92,3.29,15,9.28v.28c0,4.26-2.64,7.52-7.92,8.92C233.64,46.41,237.1,49.76,237.1,54.66Zm-13-16.51c0-2.5-2-4.3-7.35-4.3H205v8.91h10.65c6.55,0,8.46-2,8.46-4.37Zm2.35,15.49c0-2.8-2.2-4.61-9.25-4.61H205V59.5h12.52c6.69,0,9-2.39,9-5.67Z"/><path d="M271,66.44,259.66,51.61h-8V66.44h-10V26.85h20.93c12.42,0,17.79,3.75,17.86,11.9v.42c0,6.52-3,10.29-10,11.78l12.34,15.49ZM251.67,34V44.85h11c5.66,0,7.51-2.15,7.51-5.38v-.36c-.07-3.11-2-5.14-7.51-5.14Z"/><path d="M287.51,66.44V26.85h10V66.44Z"/><path d="M303.56,48.62V44.44c0-12.21,7.51-18.24,23.36-18.31C342.29,26.2,350,31.46,350,41.68v.42H339.78v-.42c-.07-6.09-4.48-8.48-12.86-8.48-8.76,0-13.16,3-13.16,11.18v4.3c0,8.37,4.42,11.42,13.16,11.42,8.38,0,12.86-2.39,12.86-8.55v-.36H350v.36c0,10.34-7.65,15.55-23.08,15.61C311.05,67.1,303.56,61.07,303.56,48.62Z"/></g></g></svg>