<svg xmlns="http://www.w3.org/2000/svg" viewBox="0 0 283 300"><defs><style>.cls-1{fill:#fff6ed;}</style></defs><g id="Layer_2" data-name="Layer 2"><g id="Layer_1-2" data-name="Layer 1"><path class="cls-1" d="M73.57,22.65c0-3.9,0-7.41,0-10.92C73.69,5,78.42.08,84.73,0S96.09,5,96.2,11.78c.06,3.51,0,7,0,10.68h90.57V13.09C186.8,5.19,191.2.06,198,0s11.41,5.16,11.42,13.26c0,2.94,0,5.88,0,9.37,4.78,0,9.44,0,14.1,0a53.28,53.28,0,0,1,24.3,5.3c20.73,10.27,31.59,27.18,32.89,50.21a1398.13,1398.13,0,0,1,.7,146.35c-.47,9.87-.73,19.9-2.76,29.5-5.12,24.22-26.61,41.76-51.34,43.3-43.69,2.72-87.4,3.46-131.14,1.9-15.65-.56-31.41-.82-46.9-2.88C24,293,4.32,270.26,2.71,244.85A1373.15,1373.15,0,0,1,1.54,93.57c.45-9.51.7-19.21,2.8-28.42C10,40.59,32.64,23,57.81,22.66,62.88,22.59,67.94,22.65,73.57,22.65ZM23.62,113.31c-.1.72-.22,1.16-.23,1.61a1284.29,1284.29,0,0,0,2.09,129.71c1.07,15.34,14.7,28.78,30.1,29.88,10.69.77,21.42,1.17,32.13,1.65a1265.19,1265.19,0,0,0,138.53-1.54,33.45,33.45,0,0,0,31.38-31.29c2.86-42.73,3.33-85.5,2-128.3a10,10,0,0,0-.33-1.72ZM209.42,45.5c0,3.66.05,7.17,0,10.68-.11,6.67-4.89,11.65-11.17,11.73-6.43.07-11.35-5-11.45-11.82,0-3.5,0-7,0-10.59H96.21c0,3.63,0,7,0,10.43-.08,6.91-4.86,12-11.28,12S73.66,62.86,73.58,56c0-3.49,0-7,0-10.71-4.43,0-8.42.07-12.41,0C38.47,44.78,21.4,61.79,25.1,90.38H258.48c-.23-4.86-.2-9.56-.73-14.19C255.87,59.52,244.51,47.65,228,45.62,222.07,44.89,216,45.5,209.42,45.5Z"/><path class="cls-1" d="M101.86,164.24a17,17,0,1,1-16.7-17.07A17,17,0,0,1,101.86,164.24Z"/><path class="cls-1" d="M141.4,147.17a17,17,0,1,1-16.87,16.89A17,17,0,0,1,141.4,147.17Z"/><path class="cls-1" d="M198.2,147.17a17,17,0,1,1-17.07,16.7A17,17,0,0,1,198.2,147.17Z"/><path class="cls-1" d="M84.8,203.78a17,17,0,1,1-16.88,16.89A17,17,0,0,1,84.8,203.78Z"/><path class="cls-1" d="M158.47,220.85a17,17,0,1,1-16.69-17.07A17,17,0,0,1,158.47,220.85Z"/><path class="cls-1" d="M215.07,220.64a17,17,0,1,1-16.9-16.86A17,17,0,0,1,215.07,220.64Z"/></g></g></svg>