<svg xmlns="http://www.w3.org/2000/svg" viewBox="0 0 406.67 400"><defs><style>.cls-1{fill:#fff6ed;}</style></defs><g id="Layer_2" data-name="Layer 2"><g id="Layer_1-2" data-name="Layer 1"><path class="cls-1" d="M387,176.93H374V13.42H32.83v163.5H19.65v-4.31q0-81.59,0-163.17C19.66,1.89,21.54,0,29.08,0H377.56C385.11,0,387,1.9,387,9.41q0,81.59,0,163.17Z"/><path class="cls-1" d="M331.49,243.89c-3.65,7.28-6.89,13.42-9.81,19.71-1.79,3.83-4.43,5.45-8.66,5.42-16.26-.13-32.52,0-48.78-.07-11.85,0-20.9-8.19-21.52-19.23-.63-11.33,7.06-20.24,18.79-21.87,8.79-1.23,17.55-2.69,26.36-3.76a6.7,6.7,0,0,0,5.36-3.66c7.9-12.77,15.64-25.65,24-38.12,7.31-10.93,18.1-15.63,31.13-14.15,12.21,1.39,20.88,8.16,26.15,19.22,1.17,2.46,2.11,5,3.1,7.57,7.64,19.57,15.59,39,22.76,58.75,4.63,12.77,6.17,26.28,6.31,39.88.06,5.81-2.3,8.17-8.18,8.18q-24.6,0-49.19,0c-5.41,0-7.32-1.6-8.31-7q-4.47-24.15-8.88-48.31C332,246,331.88,245.52,331.49,243.89Zm61.88,44.75A124.4,124.4,0,0,0,385,249c-7-17.9-14.31-35.7-21.34-53.59-3.09-7.87-8.22-13.22-16.85-14.22-9.33-1.09-15.86,3.23-20.65,11.08-8,13-16.23,25.91-24.25,38.92a9.88,9.88,0,0,1-7.76,5.17c-10.29,1.3-20.54,2.87-30.79,4.46-5.08.79-7.83,3.88-7.53,8,.33,4.35,3.62,7,9,7,14.2,0,28.41-.06,42.62.07,2.58,0,3.85-.87,5-3.12,5.07-10.42,10.37-20.74,15.48-31.15,1.58-3.22,3.67-5.59,7.52-5s5.23,3.28,5.87,6.88q5.54,31,11.38,62c.23,1.18,1.72,3,2.64,3C367.84,288.71,380.39,288.64,393.37,288.64Z"/><path class="cls-1" d="M74.83,245Q70.27,270,65.68,294.86c-1,5.28-2.94,6.89-8.36,6.9q-24.6,0-49.19,0c-5.86,0-8.19-2.38-8.13-8.24a143.85,143.85,0,0,1,10.68-52.64Q20.91,215.44,31.07,190c5-12.48,13.89-20.27,27.3-21.8,14.27-1.62,25.18,4.35,32.77,16.49,7.44,11.93,14.94,23.82,22.31,35.79a6.59,6.59,0,0,0,5.39,3.59c9.08,1.09,18.12,2.5,27.16,3.88,11.09,1.69,18.62,10.91,17.94,21.83a20.51,20.51,0,0,1-20.75,19.17c-16.67.11-33.34,0-50,.08-3.93,0-6.34-1.65-8-5.13-3-6.37-6.3-12.64-9.47-18.95ZM13.3,288.65c12.49,0,24.62-.08,36.75.05,2.7,0,3.68-.72,4.17-3.5,3.59-20.42,7.44-40.8,11.08-61.21.66-3.67,1.83-6.74,5.86-7.37,4.31-.67,6.28,2.25,8,5.66,5,10.17,10.15,20.24,15.12,30.42,1.07,2.2,2.24,3.24,4.89,3.22,14.34-.15,28.68,0,43-.09,5,0,8.28-2.66,8.64-6.87s-2.39-7.31-7.43-8.09c-10.24-1.59-20.5-3.16-30.78-4.47a9.89,9.89,0,0,1-7.81-5.1c-8.15-13.25-16.49-26.39-24.68-39.62-4.67-7.54-11.21-11.49-20.17-10.47-8.44,1-13.66,6-16.73,13.77-6.81,17.25-13.77,34.44-20.66,51.66A129.44,129.44,0,0,0,13.3,288.65Z"/><path class="cls-1" d="M216,114.87,284.7,46.09h-22V32.8h8c9.84,0,19.67,0,29.51,0,5.67,0,8.07,2.34,8.09,7.88,0,12.54,0,25.07,0,37.82h-13V55.39c-1.76,1.62-2.84,2.55-3.85,3.55l-64.93,64.92c-10,10-10.16,10-20,.14L177.46,94.88l-41.21,41.28-9.34-9.67c.71-.81,1.45-1.74,2.28-2.57Q150,103,170.93,82.18c4.74-4.74,7.63-4.72,12.46.1C194.31,93.17,205.2,104.09,216,114.87Z"/><path class="cls-1" d="M275.5,400H262.38c0-10.23.05-20.29,0-30.36a31.17,31.17,0,0,0-.74-7.29,19,19,0,0,0-18.11-14.59q-40.17-.21-80.34,0c-10.46.08-18.69,8.8-18.83,19.42-.13,10.78,0,21.57,0,32.67H131.18c0-5.09-.08-10.23,0-15.37.15-7.77-.36-15.66.81-23.29a31.65,31.65,0,0,1,31-26.54q40.36-.35,80.75,0c16.48.15,30.09,13.26,31.65,29.75.14,1.5.12,3,.13,4.51C275.51,379.15,275.5,389.38,275.5,400Z"/><path class="cls-1" d="M164,285.62c-1.14-25,16.76-39.74,32.95-42.35,22.68-3.66,44.25,13.11,45.63,36.07.53,8.75.36,17.45-3.46,25.68a39.49,39.49,0,0,1-44,22.1c-17.63-3.65-30.69-19.52-31.09-37.79C164,288,164,286.6,164,285.62Zm13.11-.5c0,1.37,0,2.73,0,4.1a26.22,26.22,0,0,0,52.43-.14c.07-2.86.12-5.73,0-8.59a26.17,26.17,0,0,0-31.51-24C184.72,259.32,177.1,269.76,177.11,285.12Z"/><path class="cls-1" d="M298.41,201l-12.17,4.74c-2.58-6.57-5.14-12.87-7.49-19.25-.78-2.11-1.82-2.85-4.13-2.85q-71.33.1-142.66,0c-2.39,0-3.32.9-4.05,3-1.45,4.09-3.15,8.1-4.9,12.55l-12.17-4.75c2.79-7,5.11-13.88,8.32-20.29.92-1.84,4.37-3.29,6.72-3.37,10.78-.35,21.58-.16,32.38-.16H279.19c6.56,0,7.67.74,10,6.78C292.24,185.08,295.24,192.82,298.41,201Z"/><path class="cls-1" d="M78.69,98.41A32.8,32.8,0,1,1,45.9,131.3,32.83,32.83,0,0,1,78.69,98.41ZM98.36,131a19.66,19.66,0,1,0-19.71,19.82A19.72,19.72,0,0,0,98.36,131Z"/><path class="cls-1" d="M328.23,98.41a32.8,32.8,0,1,1-33,32.63A32.83,32.83,0,0,1,328.23,98.41Zm-.36,52.44a19.66,19.66,0,1,0-19.54-20A19.73,19.73,0,0,0,327.87,150.85Z"/><path class="cls-1" d="M80,273.13l12.13,4.8c-2.22,5.76-4.31,11.19-6.42,16.61-3.22,8.26-5.93,16.77-9.82,24.69-4.46,9.08-3.86,18.44-3.66,28.37h52.13v13.21h-3.8q-26.43,0-52.85,0c-6.62,0-8.26-2.18-8.81-8.88a92.49,92.49,0,0,1,9-48.33C72.53,293.9,75.91,283.63,80,273.13Z"/><path class="cls-1" d="M282.25,360.77v-13h52.24c-.52-7.92,1.4-15.56-1.66-23.12-5.72-14.16-11.19-28.41-16.75-42.63-.49-1.24-.89-2.51-1.46-4.15l11.75-4.62a30.34,30.34,0,0,1,1.49,2.85c6.23,15.86,12.49,31.71,18.56,47.62a22.68,22.68,0,0,1,1.19,7.57c.15,7.37.11,14.75,0,22.12-.05,4.33-2.27,7.23-6.16,7.26C321.85,360.84,302.21,360.77,282.25,360.77Z"/><path class="cls-1" d="M144.11,33V45.63H65.84V33Z"/><path class="cls-1" d="M111.15,72.08H65.9V59.32h45.25Z"/></g></g></svg>