<svg xmlns="http://www.w3.org/2000/svg" viewBox="0 0 352.4 400"><defs><style>.cls-1{fill:#fff6ed;}</style></defs><g id="Layer_2" data-name="Layer 2"><g id="Layer_1-2" data-name="Layer 1"><path class="cls-1" d="M186.58,400q-33.27-9-66.54-17.91c-7.9-2.13-15.78-4.36-23.66-6.57a23.31,23.31,0,0,0-17.77,1.91c-2.3,1.21-4.49,2.67-6.88,3.67-4.2,1.77-7.19,3.82-6.8,9.3.26,3.66-2.68,5.92-6.44,5.85-17.18-.34-34.37-.74-51.54-1.31-4.9-.17-7.08-2.9-6.94-8q1.24-46.07,2.57-92.13c.18-6.37.29-12.75.49-19.13.18-5.74,2.51-8,8.28-7.85q24,.56,48,1.19c7.16.2,9.15,2.48,8.87,9.7-.09,2.45,0,4.9,0,7.4,5.61-2,11.1-4.28,16.81-5.85,20.51-5.65,40.68-4.2,59.56,5.57a80.05,80.05,0,0,0,38.15,9.36c12-.06,23.94.67,35.92.87,16,.27,28.26,6.93,36.8,20.46.27.43.6.83,1.08,1.49,3.52-1.65,7-3.26,10.52-4.91,14-6.6,27.91-13.36,42-19.79a33,33,0,0,1,41.09,11.61c3.58,5.33,3,8.62-2.34,12.06Q290.93,353.74,234,390.44c-8.23,5.28-17.73,7.28-27.29,8.77-1.27.2-2.51.52-3.77.79Zm60.89-67.89c-2.62-12.73-13.33-22.12-25.62-22.74-8.32-.41-16.65-.53-25-.79-9.49-.31-19-.39-28.48-1-10.88-.71-20.32-5.8-30-10.29C115.53,286.72,93,287.91,71,300.13a6,6,0,0,0-3.53,5.76c-.46,20.3-1.11,40.59-1.68,60.89a12.62,12.62,0,0,0,.18,1.78c.46.07.76.21,1,.12A30.41,30.41,0,0,0,70,367.14c10.22-6.11,21-7,32.31-3.68Q121,369,139.86,374.05c15.41,4.19,30.71,9.11,46.38,12,14.59,2.69,29.35.51,42.13-7.6,34.92-22.18,69.52-44.85,104.25-67.33,1.12-.73,2.22-1.51,3.42-2.34-6.7-5.86-14.48-6.91-22.54-3.14-14.71,6.9-29.37,13.89-44.06,20.85l-8.56,4.05c.21,2.67.51,4.86.53,7.06.06,5.21-2.44,7.87-7.55,7.75q-38.06-1-76.12-2.1c-4.78-.14-7.59-2.87-7.45-6.72s3.11-6.33,7.86-6.24c8.2.15,16.39.39,24.59.61ZM16.08,281.76c-.91,33.18-1.83,66.62-2.77,100.64H52.23c.92-33.28,1.83-66.63,2.76-100.64Z"/><path class="cls-1" d="M180.29,277.56a95.05,95.05,0,1,1,95.22-95A95.15,95.15,0,0,1,180.29,277.56Zm-.13-13A82,82,0,1,0,98.3,182.07,82.09,82.09,0,0,0,180.16,264.52Z"/><path class="cls-1" d="M173.82,38c0-10.28-.1-20.56,0-30.84.08-5.6,5.31-9,9.55-6a8.16,8.16,0,0,1,3.24,5.68c.23,20.69.19,41.38.11,62.07a6.32,6.32,0,0,1-6.27,6.62c-3.69.1-6.56-2.56-6.61-6.66-.13-10.28,0-20.56,0-30.84Z"/><path class="cls-1" d="M236,54c0,4.81.08,9.63,0,14.44-.09,4.21-2.61,6.92-6.27,7-3.82.12-6.61-2.64-6.66-7q-.17-14.23,0-28.49c0-4.39,2.85-7.15,6.67-7s6.17,2.79,6.27,7C236.1,44.61,236,49.29,236,54Z"/><path class="cls-1" d="M124.61,54.19c0-4.69-.08-9.37,0-14,.09-4.49,2.63-7.23,6.46-7.24s6.45,2.73,6.49,7.21q.13,14.05,0,28.1c0,4.45-2.67,7.23-6.46,7.24s-6.4-2.77-6.49-7.21C124.53,63.56,124.61,58.87,124.61,54.19Z"/><path class="cls-1" d="M208.36,203.6a27.79,27.79,0,0,1-19.12,26.28c-2.56.86-3.65,2-3.28,4.66a12.1,12.1,0,0,1-.11,3.5c-.53,3.46-2.81,5.21-6.11,5.53s-6.73-2.21-6.44-5.41c.57-6.12-2.56-8.43-7.48-11-8.37-4.41-12.49-12.23-13.47-21.61-.49-4.79,1.93-8.2,5.89-8.59s6.78,2.48,7.23,7.36c.78,8.42,7,14,15.37,13.9a14.7,14.7,0,0,0,14.32-13.79A14.53,14.53,0,0,0,182,188.78c-6-.65-11.86-1.31-17-4.85-8.91-6.11-13.31-14.64-12.55-25.29.78-11,6.44-19.16,16.65-23.55,3.22-1.39,4.31-3,3.93-6.31-.34-3,.47-5.74,3.36-7.34a6.42,6.42,0,0,1,9.49,4.75,13.69,13.69,0,0,1,.11,3.5c-.29,2.47.65,3.52,3.11,4.38,11.42,4,17.65,12.32,19.19,24.23.43,3.34-.3,6.28-3.5,8-4.46,2.42-9.06-.69-9.6-6.44-.88-9.56-8.75-15.65-17.88-13.84a14.81,14.81,0,0,0,.33,29.08c3.33.55,6.77.6,10,1.43A27.83,27.83,0,0,1,208.36,203.6Z"/></g></g></svg>