<svg xmlns="http://www.w3.org/2000/svg" viewBox="0 0 1560.2 948.3"><defs><style>.cls-1{opacity:0.4;}.cls-2{fill:#ff5b00;}</style></defs><g id="Layer_2" data-name="Layer 2"><g id="Layer_1-2" data-name="Layer 1"><g class="cls-1"><rect class="cls-2" x="623.79" y="772.91" width="104.05" height="35.67" transform="translate(1351.62 1581.49) rotate(180)"/><rect class="cls-2" x="623.79" y="139.72" width="104.05" height="35.67" transform="translate(1351.62 315.11) rotate(180)"/><rect class="cls-2" x="623.79" y="350.78" width="104.05" height="35.67" transform="translate(1351.62 737.24) rotate(180)"/><rect class="cls-2" x="623.79" y="561.85" width="104.05" height="35.67" transform="translate(1351.62 1159.36) rotate(180)"/><rect class="cls-2" x="623.79" y="878.44" width="104.05" height="35.67" transform="translate(-220.47 1572.09) rotate(-90)"/><rect class="cls-2" x="623.79" y="667.38" width="104.05" height="35.67" transform="translate(-9.41 1361.02) rotate(-90)"/><rect class="cls-2" x="623.79" y="456.31" width="104.05" height="35.67" transform="translate(201.66 1149.96) rotate(-90)"/><rect class="cls-2" x="623.79" y="245.25" width="104.05" height="35.67" transform="translate(412.72 938.9) rotate(-90)"/><rect class="cls-2" x="623.79" y="34.19" width="104.05" height="35.67" transform="translate(623.79 727.83) rotate(-90)"/><rect class="cls-2" x="831.88" y="772.91" width="104.05" height="35.67" transform="translate(1767.8 1581.49) rotate(180)"/><rect class="cls-2" x="831.88" y="139.72" width="104.05" height="35.67" transform="translate(1767.8 315.11) rotate(180)"/><rect class="cls-2" x="831.88" y="350.78" width="104.05" height="35.67" transform="translate(1767.8 737.24) rotate(180)"/><rect class="cls-2" x="831.88" y="561.85" width="104.05" height="35.67" transform="translate(1767.8 1159.36) rotate(180)"/><rect class="cls-2" x="831.88" y="878.44" width="104.05" height="35.67" transform="translate(-12.38 1780.18) rotate(-90)"/><rect class="cls-2" x="831.88" y="667.38" width="104.05" height="35.67" transform="translate(198.69 1569.11) rotate(-90)"/><rect class="cls-2" x="831.88" y="456.31" width="104.05" height="35.67" transform="translate(409.75 1358.05) rotate(-90)"/><rect class="cls-2" x="831.88" y="245.25" width="104.05" height="35.67" transform="translate(620.81 1146.99) rotate(-90)"/><rect class="cls-2" x="831.88" y="34.19" width="104.05" height="35.67" transform="translate(831.88 935.92) rotate(-90)"/><rect class="cls-2" x="1248.06" y="772.91" width="104.05" height="35.67" transform="translate(2600.16 1581.49) rotate(180)"/><rect class="cls-2" x="1248.06" y="139.72" width="104.05" height="35.67" transform="translate(2600.16 315.11) rotate(180)"/><rect class="cls-2" x="1248.06" y="350.78" width="104.05" height="35.67" transform="translate(2600.16 737.24) rotate(180)"/><rect class="cls-2" x="1248.06" y="561.85" width="104.05" height="35.67" transform="translate(2600.16 1159.36) rotate(180)"/><rect class="cls-2" x="1248.06" y="878.44" width="104.05" height="35.67" transform="translate(403.8 2196.36) rotate(-90)"/><rect class="cls-2" x="1248.06" y="667.38" width="104.05" height="35.67" transform="translate(614.87 1985.3) rotate(-90)"/><rect class="cls-2" x="1248.06" y="456.31" width="104.05" height="35.67" transform="translate(825.93 1774.23) rotate(-90)"/><rect class="cls-2" x="1248.06" y="245.25" width="104.05" height="35.67" transform="translate(1037 1563.17) rotate(-90)"/><rect class="cls-2" x="1248.06" y="34.19" width="104.05" height="35.67" transform="translate(1248.06 1352.1) rotate(-90)"/><rect class="cls-2" x="1456.15" y="772.91" width="104.05" height="35.67" transform="translate(3016.35 1581.49) rotate(180)"/><rect class="cls-2" x="1456.15" y="139.72" width="104.05" height="35.67" transform="translate(3016.35 315.11) rotate(180)"/><rect class="cls-2" x="1456.15" y="350.78" width="104.05" height="35.67" transform="translate(3016.35 737.24) rotate(180)"/><rect class="cls-2" x="1456.15" y="561.85" width="104.05" height="35.67" transform="translate(3016.35 1159.36) rotate(180)"/><rect class="cls-2" x="1456.15" y="878.44" width="104.05" height="35.67" transform="translate(611.9 2404.45) rotate(-90)"/><rect class="cls-2" x="1456.15" y="667.38" width="104.05" height="35.67" transform="translate(822.96 2193.39) rotate(-90)"/><rect class="cls-2" x="1456.15" y="456.31" width="104.05" height="35.67" transform="translate(1034.02 1982.32) rotate(-90)"/><rect class="cls-2" x="1456.15" y="245.25" width="104.05" height="35.67" transform="translate(1245.09 1771.26) rotate(-90)"/><rect class="cls-2" x="1456.15" y="34.19" width="104.05" height="35.67" transform="translate(1456.15 1560.2) rotate(-90)"/><rect class="cls-2" x="1039.97" y="772.91" width="104.05" height="35.67" transform="translate(2183.98 1581.49) rotate(180)"/><rect class="cls-2" x="1039.97" y="139.72" width="104.05" height="35.67" transform="translate(2183.98 315.11) rotate(180)"/><rect class="cls-2" x="1039.97" y="350.78" width="104.05" height="35.67" transform="translate(2183.98 737.24) rotate(180)"/><rect class="cls-2" x="1039.97" y="561.85" width="104.05" height="35.67" transform="translate(2183.98 1159.36) rotate(180)"/><rect class="cls-2" x="1039.97" y="878.44" width="104.05" height="35.67" transform="translate(195.71 1988.27) rotate(-90)"/><rect class="cls-2" x="1039.97" y="667.38" width="104.05" height="35.67" transform="translate(406.78 1777.21) rotate(-90)"/><rect class="cls-2" x="1039.97" y="456.31" width="104.05" height="35.67" transform="translate(617.84 1566.14) rotate(-90)"/><rect class="cls-2" x="1039.97" y="245.25" width="104.05" height="35.67" transform="translate(828.9 1355.08) rotate(-90)"/><rect class="cls-2" x="1039.97" y="34.19" width="104.05" height="35.67" transform="translate(1039.97 1144.01) rotate(-90)"/><rect class="cls-2" x="415.7" y="772.91" width="104.05" height="35.67" transform="translate(935.44 1581.49) rotate(180)"/><rect class="cls-2" x="415.7" y="139.72" width="104.05" height="35.67" transform="translate(935.44 315.11) rotate(180)"/><rect class="cls-2" x="415.7" y="350.78" width="104.05" height="35.67" transform="translate(935.44 737.24) rotate(180)"/><rect class="cls-2" x="415.7" y="561.85" width="104.05" height="35.67" transform="translate(935.44 1159.36) rotate(180)"/><rect class="cls-2" x="415.7" y="878.44" width="104.05" height="35.67" transform="translate(-428.56 1364) rotate(-90)"/><rect class="cls-2" x="415.7" y="667.38" width="104.05" height="35.67" transform="translate(-217.5 1152.93) rotate(-90)"/><rect class="cls-2" x="415.7" y="456.31" width="104.05" height="35.67" transform="translate(-6.43 941.87) rotate(-90)"/><rect class="cls-2" x="415.7" y="245.25" width="104.05" height="35.67" transform="translate(204.63 730.8) rotate(-90)"/><rect class="cls-2" x="415.7" y="34.19" width="104.05" height="35.67" transform="translate(415.7 519.74) rotate(-90)"/><rect class="cls-2" x="727.83" y="878.44" width="104.05" height="35.67" transform="translate(1559.71 1792.56) rotate(180)"/><rect class="cls-2" x="727.83" y="667.38" width="104.05" height="35.67" transform="translate(1559.71 1370.43) rotate(180)"/><rect class="cls-2" x="727.83" y="34.19" width="104.05" height="35.67" transform="translate(1559.71 104.05) rotate(180)"/><rect class="cls-2" x="727.83" y="245.25" width="104.05" height="35.67" transform="translate(1559.71 526.17) rotate(180)"/><rect class="cls-2" x="727.83" y="456.31" width="104.05" height="35.67" transform="translate(1559.71 948.3) rotate(180)"/><rect class="cls-2" x="727.83" y="772.91" width="104.05" height="35.67" transform="translate(-10.89 1570.6) rotate(-90)"/><rect class="cls-2" x="727.83" y="561.85" width="104.05" height="35.67" transform="translate(200.17 1359.54) rotate(-90)"/><rect class="cls-2" x="727.83" y="350.78" width="104.05" height="35.67" transform="translate(411.24 1148.47) rotate(-90)"/><rect class="cls-2" x="727.83" y="139.72" width="104.05" height="35.67" transform="translate(622.3 937.41) rotate(-90)"/><rect class="cls-2" x="935.92" y="878.44" width="104.05" height="35.67" transform="translate(1975.89 1792.56) rotate(180)"/><rect class="cls-2" x="935.92" y="667.38" width="104.05" height="35.67" transform="translate(1975.89 1370.43) rotate(180)"/><rect class="cls-2" x="935.92" y="34.19" width="104.05" height="35.67" transform="translate(1975.89 104.05) rotate(180)"/><rect class="cls-2" x="935.92" y="245.25" width="104.05" height="35.67" transform="translate(1975.89 526.17) rotate(180)"/><rect class="cls-2" x="935.92" y="456.31" width="104.05" height="35.67" transform="translate(1975.89 948.3) rotate(180)"/><rect class="cls-2" x="935.92" y="772.91" width="104.05" height="35.67" transform="translate(197.2 1778.69) rotate(-90)"/><rect class="cls-2" x="935.92" y="561.85" width="104.05" height="35.67" transform="translate(408.26 1567.63) rotate(-90)"/><rect class="cls-2" x="935.92" y="350.78" width="104.05" height="35.67" transform="translate(619.33 1356.56) rotate(-90)"/><rect class="cls-2" x="935.92" y="139.72" width="104.05" height="35.67" transform="translate(830.39 1145.5) rotate(-90)"/><rect class="cls-2" x="1144.01" y="878.44" width="104.05" height="35.67" transform="translate(2392.07 1792.56) rotate(180)"/><rect class="cls-2" x="1144.01" y="667.38" width="104.05" height="35.67" transform="translate(2392.07 1370.43) rotate(180)"/><rect class="cls-2" x="1144.01" y="34.19" width="104.05" height="35.67" transform="translate(2392.07 104.05) rotate(180)"/><rect class="cls-2" x="1144.01" y="245.25" width="104.05" height="35.67" transform="translate(2392.07 526.17) rotate(180)"/><rect class="cls-2" x="1144.01" y="456.31" width="104.05" height="35.67" transform="translate(2392.07 948.3) rotate(180)"/><rect class="cls-2" x="1144.01" y="772.91" width="104.05" height="35.67" transform="translate(405.29 1986.78) rotate(-90)"/><rect class="cls-2" x="1144.01" y="561.85" width="104.05" height="35.67" transform="translate(616.35 1775.72) rotate(-90)"/><rect class="cls-2" x="1144.01" y="350.78" width="104.05" height="35.67" transform="translate(827.42 1564.65) rotate(-90)"/><rect class="cls-2" x="1144.01" y="139.72" width="104.05" height="35.67" transform="translate(1038.48 1353.59) rotate(-90)"/><rect class="cls-2" x="1355.46" y="878.44" width="104.05" height="35.67" transform="translate(2814.96 1792.56) rotate(180)"/><rect class="cls-2" x="1355.46" y="667.38" width="104.05" height="35.67" transform="translate(2814.96 1370.43) rotate(180)"/><rect class="cls-2" x="1355.46" y="34.19" width="104.05" height="35.67" transform="translate(2814.96 104.05) rotate(180)"/><rect class="cls-2" x="1355.46" y="245.25" width="104.05" height="35.67" transform="translate(2814.96 526.17) rotate(180)"/><rect class="cls-2" x="1355.46" y="456.31" width="104.05" height="35.67" transform="translate(2814.96 948.3) rotate(180)"/><rect class="cls-2" x="1355.46" y="772.91" width="104.05" height="35.67" transform="translate(616.74 2198.23) rotate(-90)"/><rect class="cls-2" x="1355.46" y="561.85" width="104.05" height="35.67" transform="translate(827.8 1987.16) rotate(-90)"/><rect class="cls-2" x="1355.46" y="350.78" width="104.05" height="35.67" transform="translate(1038.86 1776.1) rotate(-90)"/><rect class="cls-2" x="1355.46" y="139.72" width="104.05" height="35.67" transform="translate(1249.93 1565.04) rotate(-90)"/><rect class="cls-2" x="519.74" y="878.44" width="104.05" height="35.67" transform="translate(1143.53 1792.56) rotate(180)"/><rect class="cls-2" x="519.74" y="667.38" width="104.05" height="35.67" transform="translate(1143.53 1370.43) rotate(180)"/><rect class="cls-2" x="519.74" y="34.19" width="104.05" height="35.67" transform="translate(1143.53 104.05) rotate(180)"/><rect class="cls-2" x="519.74" y="245.25" width="104.05" height="35.67" transform="translate(1143.53 526.17) rotate(180)"/><rect class="cls-2" x="519.74" y="456.31" width="104.05" height="35.67" transform="translate(1143.53 948.3) rotate(180)"/><rect class="cls-2" x="519.74" y="772.91" width="104.05" height="35.67" transform="translate(-218.98 1362.51) rotate(-90)"/><rect class="cls-2" x="519.74" y="561.85" width="104.05" height="35.67" transform="translate(-7.92 1151.45) rotate(-90)"/><rect class="cls-2" x="519.74" y="350.78" width="104.05" height="35.67" transform="translate(203.14 940.38) rotate(-90)"/><rect class="cls-2" x="519.74" y="139.72" width="104.05" height="35.67" transform="translate(414.21 729.32) rotate(-90)"/><rect class="cls-2" x="208.09" y="772.91" width="104.05" height="35.67" transform="translate(520.23 1581.49) rotate(180)"/><rect class="cls-2" x="208.09" y="139.72" width="104.05" height="35.67" transform="translate(520.23 315.11) rotate(180)"/><rect class="cls-2" x="208.09" y="350.78" width="104.05" height="35.67" transform="translate(520.23 737.24) rotate(180)"/><rect class="cls-2" x="208.09" y="561.85" width="104.05" height="35.67" transform="translate(520.23 1159.36) rotate(180)"/><rect class="cls-2" x="208.09" y="878.44" width="104.05" height="35.67" transform="translate(-636.16 1156.39) rotate(-90)"/><rect class="cls-2" x="208.09" y="667.38" width="104.05" height="35.67" transform="translate(-425.1 945.33) rotate(-90)"/><rect class="cls-2" x="208.09" y="456.31" width="104.05" height="35.67" transform="translate(-214.04 734.26) rotate(-90)"/><rect class="cls-2" x="208.09" y="245.25" width="104.05" height="35.67" transform="translate(-2.97 523.2) rotate(-90)"/><rect class="cls-2" x="208.09" y="34.19" width="104.05" height="35.67" transform="translate(208.09 312.14) rotate(-90)"/><rect class="cls-2" y="772.91" width="104.05" height="35.67" transform="translate(104.05 1581.49) rotate(180)"/><rect class="cls-2" y="139.72" width="104.05" height="35.67" transform="translate(104.05 315.11) rotate(180)"/><rect class="cls-2" y="350.78" width="104.05" height="35.67" transform="translate(104.05 737.24) rotate(180)"/><rect class="cls-2" y="561.85" width="104.05" height="35.67" transform="translate(104.05 1159.36) rotate(180)"/><rect class="cls-2" y="878.44" width="104.05" height="35.67" transform="translate(-844.26 948.3) rotate(-90)"/><rect class="cls-2" y="667.38" width="104.05" height="35.67" transform="translate(-633.19 737.24) rotate(-90)"/><rect class="cls-2" y="456.31" width="104.05" height="35.67" transform="translate(-422.13 526.17) rotate(-90)"/><rect class="cls-2" y="245.25" width="104.05" height="35.67" transform="translate(-211.06 315.11) rotate(-90)"/><rect class="cls-2" y="34.19" width="104.05" height="35.67" transform="translate(0 104.05) rotate(-90)"/><rect class="cls-2" x="312.14" y="878.44" width="104.05" height="35.67" transform="translate(728.32 1792.56) rotate(180)"/><rect class="cls-2" x="312.14" y="667.38" width="104.05" height="35.67" transform="translate(728.32 1370.43) rotate(180)"/><rect class="cls-2" x="312.14" y="34.19" width="104.05" height="35.67" transform="translate(728.32 104.05) rotate(180)"/><rect class="cls-2" x="312.14" y="245.25" width="104.05" height="35.67" transform="translate(728.32 526.17) rotate(180)"/><rect class="cls-2" x="312.14" y="456.31" width="104.05" height="35.67" transform="translate(728.32 948.3) rotate(180)"/><rect class="cls-2" x="312.14" y="772.91" width="104.05" height="35.67" transform="translate(-426.59 1154.91) rotate(-90)"/><rect class="cls-2" x="312.14" y="561.85" width="104.05" height="35.67" transform="translate(-215.52 943.84) rotate(-90)"/><rect class="cls-2" x="312.14" y="350.78" width="104.05" height="35.67" transform="translate(-4.46 732.78) rotate(-90)"/><rect class="cls-2" x="312.14" y="139.72" width="104.05" height="35.67" transform="translate(206.6 521.71) rotate(-90)"/><rect class="cls-2" x="104.05" y="878.44" width="104.05" height="35.67" transform="translate(312.14 1792.56) rotate(180)"/><rect class="cls-2" x="104.05" y="667.38" width="104.05" height="35.67" transform="translate(312.14 1370.43) rotate(180)"/><rect class="cls-2" x="104.05" y="34.19" width="104.05" height="35.67" transform="translate(312.14 104.05) rotate(180)"/><rect class="cls-2" x="104.05" y="245.25" width="104.05" height="35.67" transform="translate(312.14 526.17) rotate(180)"/><rect class="cls-2" x="104.05" y="456.31" width="104.05" height="35.67" transform="translate(312.14 948.3) rotate(180)"/><rect class="cls-2" x="104.05" y="772.91" width="104.05" height="35.67" transform="translate(-634.68 946.81) rotate(-90)"/><rect class="cls-2" x="104.05" y="561.85" width="104.05" height="35.67" transform="translate(-423.61 735.75) rotate(-90)"/><rect class="cls-2" x="104.05" y="350.78" width="104.05" height="35.67" transform="translate(-212.55 524.69) rotate(-90)"/><rect class="cls-2" x="104.05" y="139.72" width="104.05" height="35.67" transform="translate(-1.49 313.62) rotate(-90)"/></g></g></g></svg>