<svg xmlns="http://www.w3.org/2000/svg" viewBox="0 0 280 86.35"><defs><style>.cls-1{fill:#102d50;}</style></defs><g id="Layer_2" data-name="Layer 2"><g id="Layer_1-2" data-name="Layer 1"><path class="cls-1" d="M65.44,35.89c0,5.54-.08,10.6,0,15.65,0,2.09-.55,3-2.68,2.84s-4.25,0-6.59,0V1.19c6.36,0,12.51-.4,18.59.11,6.72.57,10.6,4.56,11.74,11.45a29,29,0,0,1,.14,9.39c-1.39,8.31-7.29,13.34-15.53,13.74C69.4,36,67.65,35.89,65.44,35.89Zm.13-9.34c5.37.89,8.62,0,10.29-2.82s1.71-8.28-.25-10.9c-2.62-3.51-6.34-2.77-10-2.66Z"/><path class="cls-1" d="M126.56,42c0,3.28.18,6.25-.1,9.16a3.76,3.76,0,0,1-2.24,2.38c-13.17,4.47-26.46.69-29.95-16.17-2.13-10.27-1.28-20.25,5.12-29,6.69-9.16,17.12-9.63,25.46-7a2.74,2.74,0,0,1,1.64,1.88c.18,3.12.08,6.26.08,9.39a68.26,68.26,0,0,0-7.9-2.18c-6.12-.91-11,2-13.49,7.82a24.64,24.64,0,0,0-.67,17.41c2.44,7.71,8.86,10.95,16.68,8.56C122.86,43.75,124.44,42.93,126.56,42Z"/><path class="cls-1" d="M44.91,23.94v9.63H31.14V47c0,1.72-.07,3.45,0,5.16s-.49,2.26-2.07,2.21c-2.31-.08-4.63,0-7.18,0V1.19H46V10.6c-3.86,0-7.83.17-11.77-.06-2.53-.14-3.29.73-3.09,3.24a62.62,62.62,0,0,1,0,7.75C31,23.45,31.79,24,33.56,24,37.26,23.87,41,23.94,44.91,23.94Z"/><path class="cls-1" d="M144.81,54.16V45.57q0-13.8,0-27.58c0-7.4,0-7.4-7.31-7.39H133V1.11h33.31v9.44H154.41V54.16Z"/><path class="cls-1" d="M0,1.12H9.1V54.05H0Z"/><path class="cls-1" d="M77.12,68.21c0,5.07,0,10.14,0,15.21,0,1.54-.21,2.51-2.09,2.52s-2.21-.72-2.2-2.38c.05-7.34,0-14.68,0-22.34a31.28,31.28,0,0,1,5.28.09,3.28,3.28,0,0,1,2.19,1.8C82,68,83.46,73,85.24,78.83c1.93-6.3,3.61-11.8,5.33-17.44h6.77v24.3H92.79V69l-.67-.08c-1.49,4.88-3,9.74-4.45,14.64C87.23,85,86.73,86,84.87,86s-2.14-1.06-2.56-2.39c-1.59-5.18-3.23-10.33-4.85-15.5Z"/><path class="cls-1" d="M265.05,69.73c0,4.58-.07,9.16,0,13.74,0,1.9-.61,2.47-2.43,2.48s-2.16-.81-2.15-2.44c.06-6.79,0-13.58,0-20.37a10.67,10.67,0,0,1,.23-1.63c4.72-.71,4.72-.71,7,3.2a114.62,114.62,0,0,0,7.67,12.12V61.44H280v6.2c0,5.07.07,10.15-.05,15.22,0,1-.63,2.76-1.2,2.86-1.49.27-3.28.82-4.41-1.25-2.37-4.33-4.91-8.57-7.39-12.84-.41-.71-.87-1.39-1.31-2.09Z"/><path class="cls-1" d="M183,73.72c.08-8,4.48-13.07,11.12-12.95a8.32,8.32,0,0,1,1.12.06c6.34.88,10.15,7.88,8.63,15.82-1.37,7.16-6.81,11-13.17,9.3C185.88,84.65,183,80,183,73.72Zm5-.31a29.82,29.82,0,0,0,.35,3.09c.73,3.34,2.76,5.19,5.45,5.09s4.67-2,5.11-5.43a20.81,20.81,0,0,0,0-5.11c-.42-3.45-2.29-5.42-5-5.53s-4.74,1.72-5.52,5A25.81,25.81,0,0,0,188,73.41Z"/><path class="cls-1" d="M167.2,85.51c-5.12.84-5.12.84-7.2-3.12a27,27,0,0,0-2.37-4.21c-.7-.9-1.88-1.4-3.48-2.51v9.94h-4.92v-9.4c0-3.83.15-7.66,0-11.48-.14-2.66.49-3.93,3.33-3.55,1.84.25,3.72,0,5.58.12,3.57.18,5.77,1.72,6.47,4.4a7.26,7.26,0,0,1-3,8.25c-.29.22-.6.43-.84.6Zm-13-12.4c2.11-1.09,3.94-1.56,5-2.76.63-.72.53-3.18-.15-3.79-1.12-1-3-1.11-4.84-1.71Z"/><path class="cls-1" d="M54.49,85.63c-4.62.55-4.52.51-5.93-3.23a3.94,3.94,0,0,0-2.4-2,7.54,7.54,0,0,0-3.86,0,3.9,3.9,0,0,0-2.48,1.87c-1.51,4-1.41,4-6.08,3.25.7-2.29,1.38-4.54,2.09-6.77,1.61-5.09,3.36-10.13,4.82-15.26.57-2,1.64-2.43,3.41-2.3s3.14-.3,3.84,2.14c2,7.06,4.32,14,6.5,21A5.65,5.65,0,0,1,54.49,85.63ZM44.41,67h-.55c-.8,3-1.61,5.94-2.47,9.11H47Z"/><path class="cls-1" d="M235.78,61.42h4.42c0,6.07.4,12-.13,17.84-.44,4.88-4.08,7.29-8.93,7.06S223.31,83.5,223,78.6c-.35-5.6-.08-11.25-.08-17.13h4.54c0,3.39,0,6.79,0,10.19a51.9,51.9,0,0,0,.22,5.72c.36,3,1.85,4.35,4.31,4.19,2.75-.18,3.62-2.18,3.7-4.53.14-4.49.07-9,.08-13.48Z"/><path class="cls-1" d="M117.89,61.39h12v4.17h-7.3v5.66h3.46c3.78,0,3.8.06,3.1,4.38H122.6c-.08,1.16-.11,2.08-.23,3-.29,2.24.55,3.16,2.8,2.94,1.64-.16,3.31,0,5.17,0v4.23H117.89Z"/><path class="cls-1" d="M16.79,66.4c-5.87-1.51-8.5-.9-10.44,2.18-1.8,2.86-1.65,8.09.3,10.62s5,3.07,9.71,1.39c1.34,4,.83,4.92-3.08,5.5-4.65.7-8.73-.19-11.43-4.6S-.54,69.7,2.51,65.43A11.74,11.74,0,0,1,14.69,61C18.13,61.76,16.58,64.22,16.79,66.4Z"/></g></g></svg>