<svg xmlns="http://www.w3.org/2000/svg" viewBox="0 0 320 90.08"><defs><style>.cls-1{fill:#312780;}.cls-2{fill:#e54e1a;}</style></defs><g id="Layer_2" data-name="Layer 2"><g id="Layer_1-2" data-name="Layer 1"><path class="cls-1" d="M47.39,90.08l-7.53-4.27L17.62,73.17a1.29,1.29,0,0,0-1.33-.06,5.65,5.65,0,1,1-3.84-10.6,5.55,5.55,0,0,1,7.06,4.18,2.52,2.52,0,0,0,1.4,1.87Q30.78,74.31,40.6,80.1l.83.48V24.44a12.36,12.36,0,0,1-10-9.91c-.23,0-.47,0-.7,0l-12.08,1.1c-2.83.26-5.65.54-8.48.74a1.67,1.67,0,0,0-1.3.73A5,5,0,0,1,0,13.61,4.91,4.91,0,0,1,3.56,9.14a4.84,4.84,0,0,1,4.91,1.19,1.23,1.23,0,0,0,1.08.36c4.06-.38,8.11-.72,12.17-1.08,3.18-.29,6.37-.59,9.55-.85.51,0,.54-.39.67-.71A12.32,12.32,0,0,1,54,5.93a1.12,1.12,0,0,0,1.24.67c4.78-.47,9.56-.88,14.33-1.31,2.3-.21,4.59-.39,6.88-.63a1.53,1.53,0,0,0,1-.48,5,5,0,0,1,9,3,5,5,0,0,1-2.91,4.66A4.94,4.94,0,0,1,78,11a1.65,1.65,0,0,0-1.46-.55c-4.17.41-8.35.77-12.52,1.15-2.44.21-4.88.44-7.32.62-.66,0-.92.2-1,1A11.91,11.91,0,0,1,48.06,23.7a.93.93,0,0,0-.68,1q0,29.42,0,58.84Z"/><path class="cls-1" d="M130.48,60.41c-1.36,6.11-2.7,12.07-4,18.11-1.68,0-3.35,0-5,0-.2,0-.46-.3-.59-.52-1.45-2.48-2.89-5-4.34-7.47-.12-.22-.26-.44-.5-.84-.32,1.42-.6,2.64-.87,3.86-.34,1.51-.67,3-1,4.52a.73.73,0,0,1-.48.46c-1.94,0-3.88,0-5.88,0,.55-2.44,1.08-4.82,1.61-7.2.77-3.42,1.56-6.84,2.3-10.27.11-.51.31-.66.82-.65,1.26,0,2.52,0,3.78,0a1,1,0,0,1,1,.56c1.5,2.62,3,5.23,4.56,7.85.11.2.24.39.46.73.43-1.9.82-3.64,1.21-5.38.24-1.08.47-2.17.75-3.25,0-.19.3-.47.47-.47C126.55,60.4,128.44,60.41,130.48,60.41Z"/><path class="cls-1" d="M138.1,43.19l-1,4.51c-.29,1.27-.56,2.55-.88,3.82-.05.2-.28.5-.43.5-2,0-3.92,0-5.93,0,.76-3.4,1.5-6.72,2.25-10,.55-2.48,1.13-5,1.66-7.43.1-.48.28-.64.76-.63,1.29,0,2.57,0,3.86,0a.94.94,0,0,1,1,.57c1.51,2.63,3,5.24,4.56,7.85.11.19.23.37.44.71.29-1.24.54-2.33.79-3.41.39-1.72.76-3.45,1.17-5.17,0-.2.28-.51.43-.52,1.92,0,3.83,0,5.88,0C151.24,40,149.9,46,148.55,52c-1.7,0-3.37,0-5,0-.19,0-.42-.27-.54-.47-1.47-2.51-2.92-5-4.37-7.55Z"/><path class="cls-1" d="M311.75,43.07,313,37.69c.24-1.09.47-2.18.75-3.25.05-.2.3-.48.47-.48,1.88,0,3.77,0,5.82,0C318.64,40,317.3,46,316,52c-1.71,0-3.4,0-5.09,0-.18,0-.4-.31-.52-.52L306,44c-.12-.2-.25-.39-.48-.75-.31,1.4-.59,2.61-.86,3.83-.34,1.51-.67,3-1,4.53,0,.18-.3.45-.47.45-1.94,0-3.87,0-5.88,0,.5-2.22,1-4.39,1.47-6.56.81-3.63,1.65-7.26,2.44-10.9.11-.51.31-.67.81-.65,1.24,0,2.48,0,3.72,0a1,1,0,0,1,1.08.61c1.49,2.61,3,5.2,4.52,7.79C311.4,42.53,311.53,42.73,311.75,43.07Z"/><path class="cls-1" d="M166.34,69.69c-.32,1.39-.59,2.6-.87,3.82-.34,1.51-.66,3-1,4.52-.05.19-.3.46-.47.47-1.93,0-3.87,0-5.88,0,.5-2.25,1-4.44,1.47-6.63.81-3.61,1.64-7.21,2.43-10.83.11-.5.3-.67.81-.66,1.21,0,2.43,0,3.64,0a1.18,1.18,0,0,1,1.21.67c1.47,2.59,3,5.16,4.48,7.73.11.2.24.4.46.74.38-1.69.73-3.21,1.07-4.73.29-1.3.57-2.6.89-3.89,0-.2.3-.48.47-.48,1.88,0,3.77,0,5.82,0-1.35,6.07-2.69,12-4.05,18.11-1.7,0-3.39,0-5.08,0-.18,0-.4-.3-.52-.51-1.47-2.51-2.92-5-4.37-7.54C166.7,70.24,166.57,70.05,166.34,69.69Z"/><path class="cls-1" d="M266.13,60.5c-1.35,6-2.69,12-4,18-1.69,0-3.34,0-5,0-.21,0-.48-.28-.61-.49-1.47-2.51-2.92-5-4.37-7.54-.12-.21-.25-.41-.49-.79-.69,3-1.33,5.89-2,8.79H243.4c.29-1.29.57-2.57.86-3.86q1.53-6.8,3-13.59c.11-.49.3-.63.77-.62,1.26,0,2.52,0,3.79,0a1,1,0,0,1,1,.59c1.49,2.6,3,5.19,4.52,7.79l.46.75c.15-.61.26-1,.37-1.51.53-2.36,1.07-4.72,1.58-7.08.08-.37.21-.54.61-.53h5.31A3.31,3.31,0,0,1,266.13,60.5Z"/><path class="cls-1" d="M118.36,52.55a13.74,13.74,0,0,1-5.2-.91,5.33,5.33,0,0,1-3.4-4.68,15.75,15.75,0,0,1,1.87-8.82,7.83,7.83,0,0,1,5-4,16.6,16.6,0,0,1,8.68-.21c3.14.77,4.67,2.6,4.8,5.8a15.3,15.3,0,0,1-2.19,8.6c-1.53,2.57-4,3.65-6.81,4C120.2,52.46,119.27,52.48,118.36,52.55Zm5-11.74c-.14-1.42-.36-2-1.09-2.28a3.36,3.36,0,0,0-4.51,1.78,26.7,26.7,0,0,0-1.09,4.92c-.22,1.69.41,2.37,2.09,2.41,2.11,0,3-.38,3.53-2.27C122.71,43.87,123,42.33,123.34,40.81Z"/><path class="cls-1" d="M285.45,52.58a34.76,34.76,0,0,1-3.48-.49c-3.34-.8-5-2.9-4.91-6.32A16.8,16.8,0,0,1,279,38.18a7.94,7.94,0,0,1,5-4.07,16.71,16.71,0,0,1,8.9-.18,5.59,5.59,0,0,1,4.62,5.65,15.57,15.57,0,0,1-2.05,8.49c-1.51,2.69-4,3.84-6.91,4.26C287.63,52.45,286.71,52.48,285.45,52.58Zm5.29-11.83c-.15-1.36-.37-1.89-1.07-2.22a3.37,3.37,0,0,0-4.5,1.7A26.46,26.46,0,0,0,284,45.29c-.2,1.65.42,2.3,2.08,2.34,2.12,0,3-.38,3.56-2.31C290.11,43.82,290.39,42.28,290.74,40.75Z"/><path class="cls-2" d="M145.17,25.41c-1.69,0-3.29,0-4.89,0a1,1,0,0,1-.62-.46c-1.46-2.49-2.89-5-4.33-7.48l-.56-.92c-.18.7-.32,1.22-.44,1.73-.49,2.2-1,4.39-1.48,6.58-.06.21-.32.54-.48.54-1.92,0-3.83,0-5.83,0l1.13-5.08c.93-4.1,1.86-8.2,2.75-12.3.12-.52.34-.67.83-.66,1.27,0,2.53,0,3.79,0A1,1,0,0,1,136,8q2.24,3.87,4.48,7.72c.13.23.28.44.53.85.29-1.28.54-2.36.79-3.45.39-1.72.76-3.45,1.18-5.16.05-.21.34-.51.52-.51,1.79,0,3.59,0,5.38,0a1.68,1.68,0,0,1,.31.11C147.85,13.45,146.52,19.4,145.17,25.41Z"/><path class="cls-2" d="M230.29,16.34c.34-1.53.69-3.06,1-4.58.29-1.28.56-2.55.88-3.82.05-.21.28-.52.44-.53,1.88,0,3.77,0,5.8,0-1.36,6.05-2.69,12-4,18-1.68,0-3.35,0-5,0-.19,0-.41-.29-.53-.5-1.47-2.5-2.91-5-4.37-7.54-.12-.21-.26-.42-.52-.83-.32,1.41-.6,2.6-.86,3.78-.35,1.54-.67,3.07-1.05,4.6a.81.81,0,0,1-.52.5c-1.89,0-3.77,0-5.77,0,.29-1.31.56-2.55.84-3.79,1-4.47,2-9,3-13.43.14-.62.36-.85,1-.83,1.18,0,2.37,0,3.56,0a1.08,1.08,0,0,1,1.09.64c1.46,2.56,3,5.11,4.44,7.66.13.23.27.45.41.68Z"/><path class="cls-2" d="M203.83,25.93c-.93-.12-2.12-.17-3.27-.42-3.38-.73-5-2.59-5.09-6.08a15.23,15.23,0,0,1,2.36-8.62c1.49-2.35,3.82-3.35,6.45-3.74a17.19,17.19,0,0,1,6.85.24,5.72,5.72,0,0,1,4.71,6,16.51,16.51,0,0,1-1.7,7.5c-1.49,3.12-4.15,4.53-7.45,4.94C205.83,25.81,205,25.84,203.83,25.93Zm-1.73-7.24.21,0c0,1.59.45,2.19,2,2.31,1.19.09,2.52.05,3.16-1.17a12.16,12.16,0,0,0,1.37-6.73,1.8,1.8,0,0,0-.79-1.19,3.35,3.35,0,0,0-4.56,1.51C202.92,15.16,202.57,17,202.1,18.69Z"/><path class="cls-1" d="M204.17,45.73c.85,2.12,1.68,4.17,2.55,6.31-2.14,0-4.17,0-6.2,0-.17,0-.4-.29-.48-.5-.57-1.49-1.13-3-1.64-4.49-.33-1-1.11-.49-1.71-.59s-.57.38-.65.74c-.36,1.6-.72,3.2-1.08,4.83h-6.29c.34-1.57.68-3.11,1-4.66,1-4.27,1.94-8.53,2.88-12.81.1-.42.23-.62.7-.61,3.18.06,6.35,0,9.53.15a10.19,10.19,0,0,1,3,.64,4.45,4.45,0,0,1,3,5.1A6.72,6.72,0,0,1,204.17,45.73Zm-7-3.44c1.39-.12,2.64-.16,3.86-.37a2,2,0,0,0,1.34-2.23c-.06-.71-.51-1.1-1.55-1.21a18.92,18.92,0,0,0-2.38-.07.59.59,0,0,0-.45.34C197.68,39.84,197.45,40.94,197.14,42.29Z"/><path class="cls-1" d="M220.86,78.49h-6.29c.45-2,.88-4,1.32-6,.87-3.84,1.75-7.68,2.59-11.53.1-.44.26-.6.72-.6,3.15.06,6.3,0,9.45.15a10.33,10.33,0,0,1,3,.65,4.44,4.44,0,0,1,3,5.11,6.68,6.68,0,0,1-4.61,5.89l2.55,6.32h-1.85c-1.36,0-2.72,0-4.08,0a.69.69,0,0,1-.78-.54c-.49-1.42-1-2.81-1.52-4.24a1.09,1.09,0,0,0-1.23-.88c-.78,0-1.15.16-1.29,1C221.64,75.41,221.22,76.91,220.86,78.49Zm2.2-9.72c1.38-.13,2.65-.17,3.9-.39a2,2,0,0,0,1.29-2.18c-.05-.73-.49-1.13-1.52-1.24a18.93,18.93,0,0,0-2.38-.08.58.58,0,0,0-.47.31C223.59,66.31,223.35,67.44,223.06,68.77Z"/><path class="cls-1" d="M219,33.94c-.3,1.37-.57,2.62-.85,3.87-.54,2.4-1.09,4.81-1.63,7.21-.33,1.46.06,2.39,1.16,2.54,2.54.35,3.42-.29,3.91-2.43.79-3.42,1.58-6.84,2.31-10.26.15-.74.41-1,1.18-.95,1.67.06,3.34,0,5,0h.79c-.36,1.63-.71,3.16-1.05,4.68-.53,2.36-1.05,4.73-1.61,7.08a9.63,9.63,0,0,1-1.95,4,7.74,7.74,0,0,1-5.07,2.58A18,18,0,0,1,213.9,52c-2.13-.55-3.88-1.66-4.2-4a12,12,0,0,1,.26-3.95c.64-3.2,1.4-6.38,2.14-9.55.06-.23.31-.57.47-.57C214.65,33.93,216.74,33.94,219,33.94Z"/><path class="cls-2" d="M269.93,19.12c.85,2.1,1.67,4.14,2.53,6.25-.31,0-.54,0-.77,0-1.63,0-3.25,0-4.87,0a.89.89,0,0,1-1.05-.7c-.45-1.4-1-2.77-1.49-4.17a1,1,0,0,0-1.14-.8c-1.35.06-1.11-.1-1.41,1.12s-.59,2.69-.93,4a.79.79,0,0,1-.52.49c-1.89,0-3.78,0-5.79,0,.24-1.09.47-2.11.69-3.13,1.07-4.74,2.15-9.48,3.18-14.22.12-.56.36-.7.88-.69,3,0,6.07,0,9.09.11a11.47,11.47,0,0,1,3.51.79,4,4,0,0,1,2.72,4,6.65,6.65,0,0,1-4.15,6.63Zm-7-3.45c1.37-.09,2.58-.11,3.76-.28a2,2,0,0,0,1.49-2.28c0-.75-.47-1.17-1.55-1.29a16.92,16.92,0,0,0-2.47-.05.51.51,0,0,0-.39.31C263.46,13.2,263.21,14.32,262.9,15.67Z"/><path class="cls-2" d="M116.16,7.39c-.39,1.77-.74,3.39-1.11,5q-.67,3-1.37,6a1.55,1.55,0,0,0,0,.21c-.28,2,.65,2.49,2.35,2.45s2.38-.64,2.8-2.4c.71-3,1.37-6,2-9.05.14-.61.26-1.23.44-1.83a.63.63,0,0,1,.41-.39c2.08,0,4.16,0,6.35,0l-.86,3.86c-.58,2.6-1.12,5.2-1.77,7.78-.6,2.39-1.66,4.57-4,5.65a14.84,14.84,0,0,1-4.11,1.08,15.39,15.39,0,0,1-6.47-.48c-3.54-1.08-4.38-3.46-3.85-6.42.67-3.68,1.59-7.31,2.41-11,0-.19.28-.47.42-.48C111.86,7.38,113.94,7.39,116.16,7.39Z"/><path class="cls-1" d="M149.76,60.53c-.67,1.5-1.28,2.94-2,4.35-.09.19-.52.29-.79.3-1.53,0-3,0-4.58,0-3.07,0-4.36,1-5.11,4A10.12,10.12,0,0,0,137,71.6,2,2,0,0,0,139,73.77a16,16,0,0,0,2,0,.68.68,0,0,0,.49-.38,15.09,15.09,0,0,0,.4-1.55h-2.47c.61-1.38,1.17-2.66,1.76-3.92a.56.56,0,0,1,.46-.23c2.4,0,4.8,0,7.2,0,0,0,.08,0,.18.1l-1.35,6.12c-.13.59-.27,1.18-.4,1.77a3,3,0,0,1-2.66,2.61,26.64,26.64,0,0,1-9.75-.22c-3.35-.86-4.95-3.33-4.63-6.79a16.89,16.89,0,0,1,1.58-5.85c1.43-2.94,4-4.25,7.06-4.73A55.76,55.76,0,0,1,149.76,60.53Z"/><path class="cls-1" d="M285.43,60.53c-.68,1.52-1.29,2.94-2,4.33-.09.19-.5.31-.77.32-1.53,0-3.05,0-4.58,0-3.11,0-4.41,1-5.15,4a10.1,10.1,0,0,0-.33,2.44,2,2,0,0,0,2.09,2.2,8.55,8.55,0,0,0,.88,0c1.62,0,1.8-.17,1.84-1.94h-2.38c.62-1.38,1.19-2.68,1.78-4a.52.52,0,0,1,.42-.19c2.44,0,4.89,0,7.43,0l-1,4.5c-.26,1.16-.51,2.31-.76,3.47a3,3,0,0,1-2.71,2.65,27.08,27.08,0,0,1-9.75-.23c-3.3-.86-4.91-3.36-4.59-6.77a16.75,16.75,0,0,1,1.64-6c1.47-2.93,4.07-4.18,7.12-4.65A57.87,57.87,0,0,1,285.43,60.53Z"/><path class="cls-1" d="M110,60.47c-.65,1.44-1.22,2.8-1.86,4.13a1,1,0,0,1-.75.35c-2.4,0-4.8,0-7.2,0-.57,0-.84.16-.91.73s-.18.89-.3,1.45h8.34c-.36.82-.64,1.49-1,2.16s-.51,1.83-1.11,2.21-1.68.15-2.55.16c-1.38,0-2.76,0-4.15,0-.43,0-.67.1-.74.56s-.23,1.12-.37,1.79h9.78c-.66,1.51-1.26,2.91-1.89,4.29a.62.62,0,0,1-.47.22H90c.35-1.6.69-3.15,1-4.69,1-4.27,1.93-8.54,2.87-12.81.1-.42.22-.62.7-.62,5,0,10,0,15,0A3.85,3.85,0,0,1,110,60.47Z"/><path class="cls-1" d="M186.69,74h9.79c-.66,1.52-1.27,2.91-1.9,4.29a.58.58,0,0,1-.46.22H179.19c.4-1.77.78-3.48,1.17-5.19L183.12,61c.08-.36.15-.61.62-.61,5,0,10.09,0,15.13,0a3.3,3.3,0,0,1,.37.06c-.64,1.43-1.24,2.82-1.89,4.19-.08.17-.47.28-.72.28-2.4,0-4.8,0-7.2,0-.58,0-.84.17-.9.74s-.18.89-.3,1.44h8.34c-.37.84-.66,1.54-1,2.23s-.5,1.76-1.09,2.15-1.58.14-2.4.15c-1.43,0-2.86,0-4.29,0-.44,0-.67.12-.74.57S186.84,73.3,186.69,74Z"/><path class="cls-1" d="M197,78.52c.5-2.25,1-4.44,1.48-6.63.81-3.63,1.64-7.26,2.45-10.9.08-.38.19-.59.64-.59q7.6,0,15.2,0a1.1,1.1,0,0,1,.26.07c-.27.62-.52,1.22-.8,1.82-.4.87-.61,2.06-1.3,2.52s-1.82.13-2.77.14c-1.67,0-3.34,0-5,0-.46,0-.71.1-.77.61a15.2,15.2,0,0,1-.34,1.58h8.34c-.67,1.52-1.26,2.91-1.9,4.28-.07.15-.46.22-.69.22-2,0-4.08,0-6.11,0-.53,0-.74.19-.82.67s-.21,1-.34,1.66h9.77c-.34.81-.62,1.49-.92,2.16s-.54,1.85-1.16,2.26-1.63.13-2.48.13H197Z"/><path class="cls-2" d="M244.31,20.94h9.76c-.66,1.5-1.26,2.89-1.88,4.27a.55.55,0,0,1-.43.19H236.89c.18-.87.36-1.68.54-2.49q1.66-7.46,3.34-14.92c.09-.42.24-.63.7-.63h14.84a3,3,0,0,1,.47.09c-.24.56-.45,1.08-.68,1.6-.31.71-.66,1.4-.93,2.12a.87.87,0,0,1-1,.63c-2.33,0-4.66,0-7,0-.7,0-1,.22-1.09.89-.05.43-.17.85-.27,1.38h8.31a20.25,20.25,0,0,0-1.08,2.56c-.42,1.58-1.33,2.09-2.94,1.91s-3,0-4.58,0a.75.75,0,0,0-.9.75C244.57,19.77,244.44,20.28,244.31,20.94Z"/><path class="cls-1" d="M150.34,52.09c.67-1.51,1.26-2.91,1.91-4.28.06-.15.38-.25.58-.25l6.33,0a11.36,11.36,0,0,0,1.3-.09c.55-.06,1-.38.91-.91a1.34,1.34,0,0,0-.82-.84c-.93-.34-1.91-.54-2.86-.81-.62-.19-1.25-.38-1.85-.63-2.34-1-3.14-2.58-2.65-5,.56-2.84,2.42-4.3,5.11-4.89a13.32,13.32,0,0,1,2.51-.36c3,0,6,0,9,0a3.69,3.69,0,0,1,.6.1c-.64,1.43-1.26,2.83-1.93,4.2-.07.15-.45.21-.69.21-2,0-4,0-6,0a3.65,3.65,0,0,0-1.28.19.92.92,0,0,0-.53.66.89.89,0,0,0,.47.69c.83.31,1.71.52,2.56.78s1.5.42,2.21.71c2.65,1.09,3.5,2.84,2.82,5.63a5.72,5.72,0,0,1-5.31,4.63c-2.56.28-5.16.28-7.75.36C153.46,52.12,152,52.09,150.34,52.09Z"/><path class="cls-1" d="M246,47.26c-.65,1.49-1.3,3-2,4.44a.65.65,0,0,1-.48.33c-2.57,0-5.14.28-7.68-.27-3.47-.75-5.23-2.88-5.14-6.42a12.57,12.57,0,0,1,2.82-8.21,9.47,9.47,0,0,1,5.87-2.9,40.51,40.51,0,0,1,9.09-.17c-.69,1.56-1.35,3.06-2,4.53-.07.14-.4.21-.61.21-1.28,0-2.57,0-3.85,0A3.77,3.77,0,0,0,238.62,41a7.82,7.82,0,0,0-1,4.26,1.75,1.75,0,0,0,1.74,1.88c1.53.15,3.09.1,4.64.13C244.65,47.27,245.27,47.26,246,47.26Z"/><path class="cls-1" d="M110.77,34.06c-.69,1.55-1.33,3-2,4.48-.07.16-.42.25-.65.26-1.28,0-2.56,0-3.84,0A3.74,3.74,0,0,0,101,40.94a7.77,7.77,0,0,0-1,4.32,1.74,1.74,0,0,0,1.68,1.86c1.54.15,3.09.11,4.64.15h2c-.25.59-.51,1.2-.78,1.8-.37.84-.72,1.69-1.12,2.51a.83.83,0,0,1-.56.44c-2.56,0-5.14.31-7.68-.26s-4.59-1.91-5-4.71a12.41,12.41,0,0,1,2.64-9.87,9.11,9.11,0,0,1,5.78-2.93A39.92,39.92,0,0,1,110.77,34.06Z"/><path class="cls-2" d="M166.76,7.48c-.68,1.52-1.28,3-2,4.37-.11.21-.6.3-.92.3-1.25,0-2.51,0-3.76,0A3.38,3.38,0,0,0,157,14.27a16.29,16.29,0,0,0-1.1,3.87c-.22,1.54.84,2.51,2.55,2.53s3.49,0,5.24,0h.55a27.38,27.38,0,0,0-1.34,3.12,2.06,2.06,0,0,1-2.53,1.67c-2-.21-4.12-.06-6.14-.36-2.94-.44-4.72-2.1-5.07-4.82a12.27,12.27,0,0,1,2.64-9.67c1.55-1.91,3.79-2.61,6.12-3A39.91,39.91,0,0,1,166.76,7.48Z"/><path class="cls-1" d="M269,34c-.64,1.48-1.24,2.9-1.91,4.29a.94.94,0,0,1-.73.38c-1.38,0-2.77,0-4.15,0-.53,0-.7.2-.81.68-.91,4.11-1.84,8.21-2.76,12.32,0,.09-.05.18-.08.3H251.8l3-13.26h-6.35c.09-.27.12-.45.19-.61.53-1.22,1-2.45,1.62-3.65a1,1,0,0,1,.64-.52q8.91,0,17.82,0A1.33,1.33,0,0,1,269,34Z"/><path class="cls-1" d="M173.93,52c1-4.44,2-8.79,3-13.27h-6.43c.71-1.61,1.35-3.09,2-4.56A.6.6,0,0,1,173,34l18,0,.17.07c-.33.76-.66,1.52-1,2.28s-.51,1.84-1.11,2.22-1.68.16-2.54.17c-.68,0-1.36,0-2,0s-.79.14-.92.72c-.91,4.18-1.86,8.35-2.81,12.57Z"/><path class="cls-2" d="M170.17,25.41c1-4.47,2-8.84,3-13.34h-6.41c.55-1.26,1.12-2.35,1.51-3.5a1.59,1.59,0,0,1,1.84-1.22c5.39.05,10.77,0,16.15,0h1.07c-.68,1.55-1.29,3-1.95,4.41-.07.16-.44.25-.67.25-1.39,0-2.77,0-4.15,0a.7.7,0,0,0-.83.66c-.85,3.92-1.76,7.82-2.59,11.74-.17.77-.44,1-1.23,1-1.65-.07-3.3,0-4.95,0Z"/><path class="cls-2" d="M90.25,25.42c.68-1.57,1.31-3,2-4.47.07-.15.39-.24.6-.25.78,0,1.55,0,2.32,0a2.43,2.43,0,0,0,2.57-2.11c.79-3.41,1.57-6.83,2.3-10.25.15-.72.39-1,1.17-1,1.62.06,3.25,0,4.87,0,.26,0,.52,0,.88,0-.39,1.76-.76,3.45-1.15,5.13-.53,2.33-1,4.68-1.62,7-1.09,3.93-3.62,5.82-7.71,5.88C94.42,25.45,92.4,25.42,90.25,25.42Z"/><path class="cls-1" d="M277.35,33.94C276,40,274.64,46,273.3,52h-6.76c.29-1.31.57-2.59.86-3.88,1-4.53,2-9.06,3.07-13.59.06-.23.34-.58.52-.58C273.05,33.92,275.11,33.94,277.35,33.94Z"/><path class="cls-1" d="M159.57,60.52l-4,18h-6.76c.58-2.63,1.16-5.22,1.75-7.82.72-3.23,1.45-6.46,2.17-9.7.08-.34.16-.57.59-.56,2,0,4,0,6,0A1.42,1.42,0,0,1,159.57,60.52Z"/><path class="cls-1" d="M234.22,78.49c.76-3.38,1.5-6.71,2.25-10,.55-2.47,1.1-5,1.69-7.42.05-.24.34-.59.52-.59,2.06,0,4.12,0,6.36,0-1.37,6.08-2.71,12.08-4,18.08Z"/><path class="cls-2" d="M195.62,7.5c-1.33,6-2.67,11.9-4,17.87h-6.7l1.12-5c.92-4.1,1.85-8.2,2.76-12.3.08-.36.14-.66.61-.65l5.89,0A1.6,1.6,0,0,1,195.62,7.5Z"/><circle class="cls-2" cx="43.44" cy="12.17" r="8.66"/></g></g></svg>