<svg xmlns="http://www.w3.org/2000/svg" viewBox="0 0 452.27 400"><defs><style>.cls-1{fill:#fff6ed;}</style></defs><g id="Layer_2" data-name="Layer 2"><g id="Layer_1-2" data-name="Layer 1"><path class="cls-1" d="M0,194.72c5.45-19.07,20.19-29.32,36.49-37.81,22.21-11.57,46.19-18,70.55-23.13.85-.17,1.67-.46,3-.83-1.84-6-3.72-11.82-5.4-17.69-6-21.12-11-42.48-10.74-64.59a94.94,94.94,0,0,1,3.2-23.92c6-21.67,22.79-30.85,44.53-25,16.72,4.47,31,13.66,43.75,24.84S210,50.11,222.24,62c1.25,1.21,2.34,2.57,3.76,4.14,4.51-4.83,8.72-9.49,13.09-14,16.45-16.94,33.59-33.17,55-43.72A81.6,81.6,0,0,1,318.64.55C335.56-1.75,348.31,7,354.1,23.13,358.34,35,359,47.26,358.16,59.69c-1.53,23-7.15,45.24-14.13,67.14-.62,1.92-1.19,3.86-1.87,6.07,8.72,2.12,17.14,4,25.47,6.22,20.51,5.47,40.63,12.1,58.48,23.94a88.29,88.29,0,0,1,17,14.56c12.28,13.77,12.1,30.75.15,44.84C433.2,234.32,420,241.62,406,247.79c-19.44,8.61-39.88,14-60.6,18.44-1,.21-1.91.53-3.05.85,2.91,10.23,5.94,20.17,8.56,30.22,4.44,17,7.66,34.2,7.42,51.8a104.07,104.07,0,0,1-2.61,22.26c-5.4,22.95-23,33.11-45.72,26.8-16.51-4.59-30.63-13.7-43.32-24.77-14.05-12.26-27.29-25.45-41.34-38.68L222,338.39c-16.17,17.8-33.26,34.59-53.66,47.6-10.85,6.92-22.23,12.75-35.38,13.79-15.82,1.25-27.75-6-34-20.58-4.79-11.22-5.64-23.1-5.17-35.07.71-18.17,4.31-35.88,9.15-53.35,1.23-4.45,4.43-6.49,8.11-5.52,3.95,1.05,5.59,4.29,4.62,9.08-2.5,12.38-5.47,24.68-7.36,37.15-2,13.28-2.42,26.71,1.92,39.76,4.23,12.74,12.94,17.58,26,14.67,11.28-2.51,21.05-8.21,30.36-14.72,19.06-13.34,35.18-29.83,50.65-47.42-.79-1.1-1.52-2.15-2.28-3.18-10.22-13.84-20.38-27.72-30.76-41.44a8.8,8.8,0,0,0-5.53-3.21c-33.91-2.76-67.51-7.33-100.31-16.73-17.43-5-34.41-11.12-50-20.6-13.08-8-24.11-17.79-28.41-33.3Zm324.41-51.09c-2-.41-3.38-.77-4.8-1-41.87-6.41-84-7.9-126.24-5.92a7.75,7.75,0,0,0-5.5,3.13c-11.14,18.84-22,37.84-33,56.75a6.1,6.1,0,0,0,0,6.91Q171.3,231.69,187.51,260a6.07,6.07,0,0,0,5.93,3.52q32.64-.15,65.28,0a6.07,6.07,0,0,0,5.95-3.49q16.2-28.29,32.63-56.46c1.56-2.67,1.27-4.74-.17-7.3-6-10.63-11.8-21.34-17.61-32.06-2.09-3.85-1.11-7.67,2.24-9.52,3.18-1.76,6.85-.72,9.08,2.8,2,3.1,3.71,6.34,5.5,9.54,3.25,5.79,6.45,11.6,10.23,18.42C312.75,170.94,318.5,157.49,324.41,143.63Zm13.25,110.62c22.62-4.49,44.46-10.11,65.15-19.58,10.47-4.79,20.51-10.31,28.53-18.8,10.11-10.7,10.47-21.6-.26-31.67a105.75,105.75,0,0,0-22.56-15.88c-21.32-11.34-44.6-17.06-68.06-22.07-2.76-.59-3.46.79-4.36,2.91-6.83,15.92-13.87,31.75-20.59,47.71a9.16,9.16,0,0,0,.07,6.46c3.13,7.44,6.86,14.62,10.08,22C329.75,234.77,333.55,244.3,337.66,254.25ZM216.94,75.89C200,56.77,182.21,38.17,160,24.63a96.49,96.49,0,0,0-23.24-10.2c-13.47-3.88-23.27,1.48-26.58,15.09a107.94,107.94,0,0,0-2.72,29.19c.87,23.52,7.45,46,14.57,68.29,1,3.11,2.53,3.56,5.44,3.21,17.35-2.11,34.72-4,52.08-6.11a6.23,6.23,0,0,0,3.91-2.1C194.59,106.85,205.58,91.59,216.94,75.89Zm18.25,0c11.45,15.79,22.56,31.14,33.73,46.43A4.51,4.51,0,0,0,271.7,124c18.08,2.14,36.18,4.23,54.29,6.11a4.54,4.54,0,0,0,3.62-2.34c7.93-23.13,14.14-46.67,15.42-71.24.54-10.32,0-20.6-4.06-30.33-3.92-9.41-10.24-13.36-20.36-12.7-9.51.61-17.85,4.69-25.83,9.44C271.49,36.83,252.92,56,235.19,75.9ZM13.13,202.11c1,2.25,2.44,6.64,4.93,10.27,5.18,7.55,12.78,12.48,20.66,16.86C61.6,242,86.6,248.4,112,253.66c1.08.22,3.24-1.09,3.74-2.2q10.85-24.33,21.27-48.85a6.87,6.87,0,0,0,.1-4.87Q126.56,173,115.64,148.48a4.6,4.6,0,0,0-3.81-2.08c-20.61,4.18-40.94,9.39-60.23,18-11.33,5-22.23,10.8-30.91,19.94C16.56,188.67,13.54,193.63,13.13,202.11Zm222.1,122.06c18.1,20.27,37.1,40.1,61.36,53.85a81.51,81.51,0,0,0,19.1,7.68c13.21,3.51,22-1.62,26.31-14.6,3.22-9.64,3.55-19.61,2.91-29.65-1.5-23.65-7.66-46.27-14.88-68.69-1-3.06-2.55-3.2-5.19-2.89-17.35,2.09-34.73,4-52.08,6.12a6.79,6.79,0,0,0-4.22,2.31C257.49,293.33,246.59,308.47,235.23,324.17Zm-89.71-139,27.37-47.47-45.34,5.49C133.7,157.52,139.48,171,145.52,185.13Zm179.13,71.8c-6.18-14.42-12-27.94-18-42L279.3,262.39Zm-179.13-42c-6.07,14.22-11.83,27.7-17.93,42l45.29,5.42Zm80.54-128.7-27.34,36.6h54.77Zm0,227.62c9.43-12.61,18.23-24.38,27.37-36.62H198.68C207.9,289.55,216.67,301.25,226.1,313.84Z"/><path class="cls-1" d="M268.07,201c-1,23.63-20.46,42.1-43.2,41-23.5-1.16-41.7-20.35-40.76-43,1-23.59,20.45-42.07,43.19-41C250.77,159.19,269,178.41,268.07,201Zm-13.21-1.2a28.77,28.77,0,1,0-28.79,29A28.87,28.87,0,0,0,254.86,199.81Z"/></g></g></svg>