<svg xmlns="http://www.w3.org/2000/svg" viewBox="0 0 300 81.52"><g id="Layer_2" data-name="Layer 2"><g id="Layer_1-2" data-name="Layer 1"><path d="M0,34C.31,23.63,4.82,11.62,17.65,4.32,36.86-6.61,58.93,4.13,62.68,26c1.27,7.37,2.81,14.71,3.9,22.11,3.54,23.84-16.57,39.75-39.11,31C10.55,72.56,0,56.69,0,34Zm61.33,19.6c-.28-2.07-.49-4.15-.84-6.21-1.12-6.51-2.39-13-3.41-19.51C55.49,17.64,50.41,10.12,40.21,7.1c-10.47-3.1-19.5.05-26.59,8s-8.56,17.8-7.41,28.2c1.64,14.78,12.72,27.78,27,31.41C48.41,78.59,61.05,69.05,61.33,53.61Z"/><path d="M80.06,20c3.5,0,6.36-.17,9.17.11.73.07,1.73,1.45,1.93,2.37,1.35,6.35,2.52,12.74,4.2,19.16,1.32-6.33,2.73-12.63,3.89-19,.38-2,1.17-2.84,3.24-2.71,2.28.14,4.58,0,7.41,0v41.9h-6.63V39.38l-.85,0c-1.06,5.94-2.11,11.88-3.19,17.81-1,5.43-1,5.43-7.12,4.69C90.7,54.31,89.26,46.66,87.82,39h-.74V61.9h-7Z"/><path d="M294.31,39.3c5.27,3.76,6.81,8.76,4.91,15.13-1.47,4.91-5.05,7.48-11.08,7.66-4.62.14-9.24,0-14.12,0V20.37c5.66,0,11.16-.33,16.6.12A7.92,7.92,0,0,1,298.06,27C299,31.64,299.11,36.11,294.31,39.3ZM284,43.45v11.6c5.14.16,6.55-1.37,6.36-6.62C290.17,44.3,288.57,43,284,43.45Zm-.05-6.93c4.87-.06,6.05-1.19,5.89-5.32-.13-3.55-1.63-4.69-5.89-4.28Z"/><path d="M240.1,62h-9.45V44.27H224.9v17.6h-9.73c-.08-1-.23-2.08-.23-3.14,0-11.7.07-23.4-.07-35.1,0-2.87.77-4,3.73-3.7a56.85,56.85,0,0,0,6.16,0V36.46h5.76V20.22h9.58Z"/><path d="M114.84,20.38c5.64,0,11.13-.33,16.56.11A8.06,8.06,0,0,1,138.83,27c1.16,4.79.82,9.17-3.71,12.26,5.22,3.86,6.83,9.23,4.76,15.53-1.54,4.72-5.44,7.2-11.71,7.3-4.38.07-8.76,0-13.33,0ZM124.36,55c2.8.46,5.52.34,6-2.34a17.92,17.92,0,0,0-.75-8.09c-.23-.79-2.65-1.05-4.11-1.31-.29,0-1.12,1-1.13,1.59C124.31,48.18,124.36,51.56,124.36,55Zm0-18.68c5.17.64,7.91-2.51,5.89-6.83-.64-1.38-3-1.95-4.6-2.89a16.29,16.29,0,0,0-1.24,3.57C124.2,32.18,124.35,34.26,124.35,36.28Z"/><path d="M169.27,41.06c0,3.42.15,6.84,0,10.24-.38,7.26-4.42,11.21-11.46,11.43-8.64.26-13.27-3-13.77-10.69a166.61,166.61,0,0,1,0-22.12c.53-7.77,4.94-10.71,14.17-10.48,6.61.16,10.62,4.07,11,11.06C169.44,34,169.27,37.54,169.27,41.06Zm-15.44.07c0,3.63-.21,7.28.12,10.88.11,1.29,1.35,3.21,2.44,3.51,1.92.53,2.89-1.17,2.9-3.05.07-7.58.2-15.17,0-22.74a4.37,4.37,0,0,0-2.79-3.18c-2.31-.3-2.61,1.85-2.64,3.68C153.8,33.86,153.83,37.49,153.83,41.13Z"/><path d="M245.2,20.2h8.86c.06,1.28.15,2.45.16,3.63,0,8.5,0,17,0,25.51,0,1.2-.16,2.6.37,3.56a4.71,4.71,0,0,0,2.89,2.31c.68.09,1.81-1.46,2.31-2.49a7.31,7.31,0,0,0,.16-2.94q0-12.75,0-25.51c0-1.29.11-2.59.17-3.9A11.19,11.19,0,0,1,261.7,20c8.22-.59,8.22-.59,8.22,7.64,0,7.17,0,14.35,0,21.53,0,14-9.9,15.06-18.91,12.57a7.44,7.44,0,0,1-5.72-7C245,43.3,245.2,31.86,245.2,20.2Z"/><path d="M197.76,62h-8.69c-.53-2.78-1-5.46-1.58-8.33H182c-.54,2.74-1.09,5.49-1.65,8.3h-9.08c1.27-6.81,2.49-13.38,3.71-19.95,1.17-6.27,2.42-12.53,3.5-18.83.39-2.27,1.13-3.33,3.77-3.29,7.87.11,7.91,0,9.36,7.64,2,10.6,4,21.2,5.92,31.81C197.68,60.1,197.67,60.87,197.76,62ZM184.9,34.71l-.41.08c-.5,4.06-1,8.12-1.55,12.52l3.57-.32C186,42.69,185.42,38.7,184.9,34.71Z"/><path d="M9.76,37.51c.13-8.86,2.43-16.94,9.79-22.76C32.82,4.24,50.59,11.29,53.23,28,54.37,35.15,55.68,42.3,57,49.45c2.47,13.38-5.92,23-19.46,22C30.62,71,24.94,67.61,20,63,12.77,56.1,9.94,47.39,9.76,37.51ZM53.09,52.37C51.56,43.76,50.22,34,48,24.52c-1.36-5.75-5.85-9.17-11.85-10.2a18.21,18.21,0,0,0-19,9.62c-3.14,5.85-3.7,12.11-2.89,18.61,1.43,11.51,9.7,21.37,20.57,24.34C45.15,69.74,53.12,63.89,53.09,52.37Z"/><path d="M48.14,52.71c0,7.76-4.23,11.09-11.23,9.52-11.54-2.57-19.53-14.77-18-27.31.59-4.71,1.82-9.12,5.51-12.4s7.92-4.43,12.6-2.85c4.44,1.5,6.36,5,7.09,9.53,1.13,7,2.48,13.88,3.72,20.82C48,51.1,48.09,52.21,48.14,52.71ZM21.69,37.1l.84.33c-.05,11.09,6.71,20,16.26,21.45,3.36.51,5.34-1,5.62-4.32a15.77,15.77,0,0,0-.18-3.94C43,43.81,41.7,37,40.58,30.2,40,26.82,38.93,24,35.31,23c-3.8-1-7.34.15-9.29,3.35S23.09,33.49,21.69,37.1Z"/><path d="M40.47,49.76c-.71,1.15-1.17,2.87-2.18,3.29a5.16,5.16,0,0,1-4.22-.41,11.81,11.81,0,0,1-3.54-4.21,26,26,0,0,1-2.61-16c.34-2.64,1.74-4.54,4.76-4.46,2.87.07,3.94,1.91,4.31,4.48.84,5.71,1.75,11.42,2.63,17.13Z"/></g></g></svg>