<svg xmlns="http://www.w3.org/2000/svg" viewBox="0 0 385.55 400"><defs><style>.cls-1{fill:#fff6ed;}</style></defs><g id="Layer_2" data-name="Layer 2"><g id="Layer_1-2" data-name="Layer 1"><path class="cls-1" d="M121.5,301.59l17.24,9.86a70.22,70.22,0,0,1,29.08-21.66c-11.21-9.56-17-21.22-16-35.64a39.72,39.72,0,0,1,12.73-27,41,41,0,0,1,56.27-.27A39.92,39.92,0,0,1,233.85,259c-.58,12.46-6.21,22.56-16.14,30.76a70.27,70.27,0,0,1,29.09,21.68l17.2-9.85c-12-10.28-17.65-23.43-15.18-39.43a39.3,39.3,0,0,1,15.34-25.66,41,41,0,0,1,54.65,3.83,40.1,40.1,0,0,1,11.54,31.57c-.82,12.13-6.47,21.92-15.45,29.42,6,3.85,12.13,7.2,17.59,11.4a63,63,0,0,1,21.6,30.9c1,3,2.39,4.08,5.42,3.74a42.09,42.09,0,0,1,6.45,0c11,.49,19.15,8.63,19.45,19.67.19,7,.17,14,0,21s-5.13,11.77-12.08,12c-1.07,0-2.15,0-3.22,0H15.39C4.24,400,.14,395.88.14,384.67c0-5.51-.05-11,0-16.52.12-12.21,8.29-21.07,20.38-20.62,7.25.26,10.33-1.89,13-8.82,6.83-17.43,20-29.28,37.62-36.79-12.16-10.65-18-23.65-15.45-39.74a39.52,39.52,0,0,1,14.38-24.9,40.93,40.93,0,0,1,55,2.56,40,40,0,0,1,12.07,31.75C136.52,284,130.73,293.77,121.5,301.59Zm251.06,85.28V371.32c0-9.38-1.7-11.11-10.95-11.11H23.86c-1.34,0-2.69,0-4,.08-3.93.28-6.43,2.58-6.62,6.32-.35,6.66-.1,13.36-.1,20.26ZM237.38,321c-20.63-30.17-68.09-30.56-88.57-.9L163.5,347.3c18.54,0,38,0,57.47-.07a3.43,3.43,0,0,0,2.71-1.56A73.67,73.67,0,0,1,237.38,321Zm-.11,26H341.2C337,327.69,314,311,290.74,310.2,267.14,309.36,243.5,325.49,237.27,347Zm-193,0h104c-6.06-21.06-28.87-37-52.32-36.77C72.65,310.4,50,326.31,44.23,347Zm217-77.94a28.22,28.22,0,1,0,28-28.3A28.11,28.11,0,0,0,261.18,269ZM193,228.75A28.21,28.21,0,1,0,221,257.37,28.16,28.16,0,0,0,193,228.75Zm-68.58,40.46a28.2,28.2,0,0,0-56.4-.45,28.2,28.2,0,1,0,56.4.45Z"/><path class="cls-1" d="M86.89,97.11c6.38-3.29,12.39-6.24,18.2-9.54,1-.56,1.56-2.64,1.57-4,.11-14.92,0-29.83.09-44.75C106.9,18.54,119.64,3.54,139.32.38A43.06,43.06,0,0,1,146.14,0q100,0,199.94,0c23.21,0,39.34,16,39.37,39.21q.07,50.79,0,101.58c0,23.08-15.84,39.16-38.92,39.2q-100.36.15-200.74,0c-23.11,0-38.88-16-39.06-39.09,0-1.7,0-3.41,0-5.74-5.47,2.81-10.41,5.15-15.11,7.92-1,.57-1.42,2.71-1.43,4.13-.09,20-.06,40-.07,60.06,0,12.61-5.85,18.42-18.52,18.42q-27,0-54,0C6.32,225.68.15,219.5.14,208.23c0-29.29.32-58.59-.13-87.87C-.26,102.58,4,87.17,22.45,74.7c-23-19.23-16.56-46.43-3.78-58.46a38.44,38.44,0,0,1,53.17.25c12.53,12.09,19,38.72-4.2,58.35A46.84,46.84,0,0,1,86.89,97.11Zm51-10.8c1.5-1.74,2.9-3.34,4.29-5C153.08,68.59,164,55.81,175,43.09a11.32,11.32,0,0,1,4.33-3.4,5.71,5.71,0,0,1,7.06,2.43c1.93,3,1.34,5.84-.91,8.48C173.63,64.38,161.9,78.21,150,91.94c-3.09,3.57-6.54,6.82-5,12.24a4.78,4.78,0,0,1-.23,2c-1.44,8.63-7.1,13.94-14.75,16.68-8.61,3.09-11.25,8.21-10.73,17.37,1,16.78,10.27,26.9,27,26.91q99.78,0,199.56,0c16.5,0,26.58-10.2,26.58-26.7q0-50.4,0-100.79c0-16.48-10.2-26.72-26.6-26.72H146.38c-16.46,0-26.69,10.17-26.74,26.59,0,12.37,0,24.73,0,37.1v4.24C126.71,80.07,132.6,81.78,137.87,86.31ZM77,150.6c-3.93,2-7.21,3.79-10.63,5.29a21.29,21.29,0,0,1-30-22.18c.48-4.29,3.33-7.08,7-6.82s6,3.19,5.92,7.64c-.21,9,5.76,12.8,13.71,8.75,8.12-4.15,16.19-8.4,24.29-12.6,13.22-6.86,26.46-13.67,39.65-20.58,4.86-2.54,6.25-5.75,4.74-10.14-1.93-5.63-6.82-7.83-12.11-5.15C108.63,100.32,97.83,106,87,111.63c-2.79,1.44-5.6,2.84-8.68,4.41-.58-2.69-1.08-4.9-1.53-7.12C73.38,91.87,59,80.34,43,81.82c-17.67,1.64-29.92,15-30,32.88-.08,31,0,62.06-.08,93.09,0,4,1.48,5.1,5.24,5.07,17.86-.13,35.73-.05,53.6-.07,5,0,5.4-.4,5.4-5.6q0-26.19,0-52.39C77.22,153.63,77.12,152.45,77,150.6ZM45.18,68.73A25.11,25.11,0,1,0,20,43.79,25,25,0,0,0,45.18,68.73Z"/><path class="cls-1" d="M260.86,78.93q-27.62,0-55.22,0a16.43,16.43,0,0,1-4.76-.48,5.84,5.84,0,0,1-4.37-6.8,5.89,5.89,0,0,1,5.5-5.51,29.24,29.24,0,0,1,3.63-.09H316.46c1.07,0,2.15,0,3.22,0,3.63.31,5.7,2.47,6,5.93s-1.58,5.65-4.8,6.55a16.44,16.44,0,0,1-4.39.36Q288.66,78.95,260.86,78.93Z"/><path class="cls-1" d="M274.64,149.34H232.72a24.46,24.46,0,0,1-4-.14,5.87,5.87,0,0,1-5.31-5.67c-.28-3.19,1.12-5.55,4.19-6.53a15.72,15.72,0,0,1,4.76-.53q42.51,0,85,0a16.63,16.63,0,0,1,4,.27c3.28.81,5.16,3.11,5,6.41-.16,3.45-2.18,5.81-5.8,6.09-2.94.23-5.91.11-8.87.12Z"/><path class="cls-1" d="M231.06,114.16c-11.41,0-22.82,0-34.22,0a17.37,17.37,0,0,1-4.79-.47c-3.09-.91-4.53-3.25-4.35-6.42a5.76,5.76,0,0,1,4.76-5.71,14.22,14.22,0,0,1,3.2-.28h71.27a14.21,14.21,0,0,1,3.2.24,5.86,5.86,0,0,1,4.95,6,5.77,5.77,0,0,1-4.6,6.24,21.38,21.38,0,0,1-5.19.42C253.88,114.18,242.47,114.16,231.06,114.16Z"/><path class="cls-1" d="M236,43.58c-9.4,0-18.79,0-28.18,0-4.94,0-7.65-2.23-7.77-6.21-.12-4.14,2.71-6.66,7.75-6.67q28,0,56,0c4.9,0,8,2.7,7.86,6.66s-3.07,6.2-7.85,6.22C254.46,43.6,245.21,43.58,236,43.58Z"/><path class="cls-1" d="M307.25,43.58c-4,0-8.06.06-12.09,0-4.4-.08-7.2-2.67-7.16-6.47,0-3.63,2.74-6.31,6.88-6.37q12.28-.16,24.57,0c4.09.05,6.92,2.74,7,6.3.09,3.72-2.82,6.46-7.12,6.55C315.31,43.64,311.28,43.58,307.25,43.58Z"/><path class="cls-1" d="M188.8,149.32c-4,0-8.07.09-12.1,0s-6.53-2.48-6.68-6a6.19,6.19,0,0,1,6.44-6.74q12.28-.25,24.59,0c4.12.08,6.63,2.93,6.49,6.69-.13,3.55-2.65,6-6.65,6.09S192.83,149.32,188.8,149.32Z"/><path class="cls-1" d="M307.45,101.3c3.89,0,7.79-.13,11.67,0s6.53,2.73,6.63,6.18a6.27,6.27,0,0,1-6.3,6.49q-11.85.34-23.73,0c-4-.1-6.34-2.77-6.32-6.39s2.5-6.18,6.79-6.33c3.75-.13,7.51,0,11.26,0Z"/></g></g></svg>