<svg xmlns="http://www.w3.org/2000/svg" viewBox="0 0 387.58 400"><defs><style>.cls-1{fill:#fff6ed;}</style></defs><g id="Layer_2" data-name="Layer 2"><g id="Layer_1-2" data-name="Layer 1"><path class="cls-1" d="M199.28,0c1.49.39,3,.8,4.48,1.16a43.68,43.68,0,0,1,23.13,71.07c-.66.78-1.27,1.6-2.2,2.78,2,.41,3.6.71,5.2,1.09a44.28,44.28,0,0,1,24.55,15.61c5.1,6.21,10.29,12.35,15.55,18.66,7-4.64,13.61-9.18,20.38-13.53,14.28-9.18,32-1.17,34.25,15.6a20.33,20.33,0,0,1-8.68,20.12c-16.28,11.67-32.75,23.07-49.2,34.5-3.84,2.67-6.6,2.11-9.84-1.64q-11.46-13.3-22.88-26.66c-.66-.76-1.36-1.49-2.45-2.69v38.86H310c6.9,0,8.77,1.88,8.78,8.79,0,11.45,0,22.89,0,34.64H306.35V187.63H81.55V218.4H68.86V193.08c0-3.51,0-7,0-10.54.06-5.36,2.24-7.59,7.6-7.6q31.83,0,63.64,0h15.53V136c-4.57,5.31-8.63,10-12.68,14.73-4.23,4.93-8.42,9.91-12.71,14.8-3.33,3.8-6,4.13-10.19,1.24-15.9-11.08-31.82-22.12-47.62-33.34-10.42-7.4-12.86-20.54-6-30.63s20.17-12.67,31-5.62c6.53,4.25,13,8.64,19.8,13.21,4.29-5.15,8.71-10.07,12.71-15.31C138,84.54,148,77.2,161.46,75.32a1.5,1.5,0,0,0,.67-.34c-2.83-4.67-6.19-9.06-8.35-14-11.3-25.63,4.45-55.06,32-60.24.87-.17,1.72-.5,2.58-.76Zm64.34,154.08c14.71-10.31,29-20.28,43.25-30.32,5.25-3.7,6.58-9.23,3.49-13.82s-8.84-5.51-14.39-1.85c-7.49,4.94-14.91,10-22.41,14.92-4.6,3-7.16,2.59-10.73-1.69q-9.15-10.92-18.26-21.88c-6.74-8.14-15.39-12-25.95-12q-25,.1-50,0c-10.89,0-19.63,4.14-26.48,12.56-5.83,7.17-11.78,14.24-17.73,21.31-3.73,4.44-6.16,4.74-11.05,1.5-7.48-5-14.92-10-22.42-14.92-5.33-3.51-11-2.71-14.11,1.85s-2,10.09,3.28,13.83c5.93,4.24,11.93,8.36,17.9,12.54L123.62,154c1-1.12,1.77-2,2.53-2.85q15.25-17.78,30.49-35.57c2-2.34,4.3-3.87,7.49-2.76s4.37,3.82,4.33,7.09c0,1,0,2.09,0,3.13v51.61H218.8V171q0-25.59,0-51.16c0-3.16,1-5.64,4.06-6.86s5.55,0,7.58,2.42l6.09,7.11ZM225,43.8A31.23,31.23,0,1,0,194,75,31.32,31.32,0,0,0,225,43.8Z"/><path class="cls-1" d="M38.3,312.64c-9.78-10.54-14.42-22.47-12.88-36.35a42.4,42.4,0,0,1,14.65-28,43.5,43.5,0,0,1,58.09.47,42.28,42.28,0,0,1,14.37,31.37c.32,12.44-4.29,23.07-12.46,31.72,6,2.59,12.26,4.46,17.54,7.88s9.41,8.36,14.28,12.84c7.12-10.63,17.44-17.62,31.38-19.85-9.91-10.75-14.59-22.89-12.81-37.05a42.46,42.46,0,0,1,14.47-27.3,43.51,43.51,0,0,1,56-1.45,42.51,42.51,0,0,1,16.51,31.93c.75,13-4,24.08-13.19,33.86,14,2.24,24.26,9.09,32,20.71,7.68-11.39,17.95-18.47,32-20.67C277.47,301,272.87,287.67,276,272.3a42.43,42.43,0,0,1,15.63-25.39,43.5,43.5,0,0,1,56.29,1.66,42.26,42.26,0,0,1,14.56,31.69c.26,12.39-4.31,23-12.85,31.91,4.73,1.67,9.31,2.76,13.38,4.83,15.32,7.79,23.48,20.53,24.39,37.64.45,8.43.05,16.91.15,25.37a7.88,7.88,0,0,1-3.91,7.14c-7.4,4.93-15.71,7.49-24.31,9.05-28.6,5.19-57.2,5.29-85.64-1.1-5.15-1.15-10-3.5-15.06-5.2-1.12-.38-2.65-.87-3.56-.42-11.53,5.64-23.9,7.95-36.5,9.13-23.43,2.18-46.8,2.05-69.83-3.5-5.14-1.24-10-3.51-15.06-5.21-1.13-.38-2.65-.86-3.56-.42-11.53,5.65-23.9,7.95-36.5,9.13-23.57,2.2-47.1,2.15-70.2-3.63-6.58-1.65-12.78-4.92-19-7.72C1.23,385.86,0,383.09.1,379.57c.21-9.49-.62-19.09.5-28.46C3.06,330.6,16.86,316.82,38.3,312.64Zm30.76,12.23v0c-8.72,0-17.44-.15-26.15,0-14.57.32-27.39,10.87-29.45,25.29-1.23,8.55-.68,17.37-.72,26.07a3.8,3.8,0,0,0,2.19,2.63,104.34,104.34,0,0,0,13.65,4.51c21.29,4.72,42.87,5.12,64.4,2.52,9.83-1.18,19.44-4.32,29.14-6.62,2.36-.56,3.11-2.11,3-4.59-.19-6.11,0-12.23-.08-18.34-.21-17.81-13.67-31.33-31.43-31.51C85.45,324.8,77.25,324.87,69.06,324.87Zm127.27,62.58c4.57-.24,11.73-.39,18.85-1,10.89-1,21.7-2.62,31.8-7.14,1.31-.59,2.87-2.41,2.92-3.71.27-7,.32-14.05,0-21.07A30.93,30.93,0,0,0,219.82,325c-17.29-.27-34.6-.23-51.9,0a30.3,30.3,0,0,0-29.54,25.22c-1.07,6.74-.68,13.73-.77,20.61-.11,7.82,0,7.83,7.61,10.37C161,386.36,177.34,387.14,196.33,387.45Zm124.88,0c4.58-.24,11.75-.38,18.86-1,10.9-1,21.71-2.62,31.8-7.13,1.32-.59,2.93-2.38,3-3.67.27-7.15.36-14.32,0-21.46a30.9,30.9,0,0,0-30-29.21q-26.15-.4-52.29,0a30.21,30.21,0,0,0-29.2,25.13c-1.07,6.74-.68,13.73-.78,20.61-.11,7.88,0,7.89,7.56,10.41C285.88,386.35,302.23,387.13,321.21,387.45ZM68.91,249.91a31.23,31.23,0,1,0,31.18,31.39A31.26,31.26,0,0,0,68.91,249.91ZM193.7,312.36a31.23,31.23,0,1,0-31.12-31.43A31.27,31.27,0,0,0,193.7,312.36ZM350,280.79a31.23,31.23,0,1,0-30.58,31.57A31.32,31.32,0,0,0,350,280.79Z"/></g></g></svg>