<svg xmlns="http://www.w3.org/2000/svg" viewBox="0 0 1112.02 400"><defs><style>.cls-1{fill:#fff6ed;}</style></defs><g id="Layer_2" data-name="Layer 2"><g id="Layer_1-2" data-name="Layer 1"><path class="cls-1" d="M350.74,130.69v56.82h7.09V130.69Z"/><path class="cls-1" d="M407.2,130.69v44.62h-.35l-31.09-44.59,0,0h-6.89v56.82h7V143.06h.35l31.11,44.45h6.89V130.69Z"/><path class="cls-1" d="M463.59,130.69v44.62h-.35l-31.09-44.59,0,0h-6.89v56.82h7V143.06h.35l31.11,44.45h6.89V130.69Z"/><path class="cls-1" d="M524.75,137.66a22.62,22.62,0,0,0-11.32-6.94,32,32,0,0,0-15.64,0,22.62,22.62,0,0,0-11.32,6.94q-7.05,7.92-7.05,21.46t7.05,21.44q7,7.91,19.14,7.9t19.14-7.9q7-7.89,7-21.44T524.75,137.66Zm-5.34,38.1q-5.1,6.17-13.8,6.16t-13.8-6.16q-5.1-6.16-5.1-16.64t5.1-16.67q5.1-6.16,13.8-6.17t13.8,6.17q5.1,6.17,5.1,16.67T519.41,175.76Z"/><path class="cls-1" d="M575.58,130.69v0l-16.88,48.17h-.24l-16.88-48.17v0h-7.44v0l20.94,56.79h7L583,130.72v0Z"/><path class="cls-1" d="M607.84,130.72v0h-7v0l-20.94,56.79h7.45L593,171.25h22.6l5.71,16.26h7.44Zm-12.73,34.51,9.1-25.91h.23l9.1,25.91Z"/><path class="cls-1" d="M623.86,130.69v6.38h17.91v50.44h7.09V137.07h17.92v-6.38Z"/><path class="cls-1" d="M674.26,130.69v56.82h7.09V130.69Z"/><path class="cls-1" d="M735.49,137.66a22.62,22.62,0,0,0-11.32-6.94,32,32,0,0,0-15.64,0,22.63,22.63,0,0,0-11.31,6.94q-7.05,7.92-7.05,21.46t7.05,21.44q7,7.91,19.13,7.9t19.14-7.9q7.05-7.89,7-21.44T735.49,137.66Zm-5.33,38.1q-5.1,6.17-13.81,6.16t-13.8-6.16q-5.1-6.16-5.1-16.64t5.1-16.67q5.1-6.16,13.8-6.17t13.81,6.17q5.1,6.17,5.1,16.67T730.16,175.76Z"/><path class="cls-1" d="M789.71,130.69v44.62h-.35l-31.09-44.59,0,0h-6.89v56.82h7V143.06h.35l31.11,44.45h6.89V130.69Z"/><path class="cls-1" d="M831.37,181.14V130.69h-7.08v56.82h34.49v-6.37Z"/><path class="cls-1" d="M890,130.72v0h-7v0l-20.94,56.79h7.44l5.71-16.26h22.6l5.71,16.26H911Zm-12.73,34.51,9.09-25.91h.24l9.1,25.91Z"/><path class="cls-1" d="M954.72,162.12a14.52,14.52,0,0,0-9.23-4.53v-.32a11.3,11.3,0,0,0,7-4.35,12.64,12.64,0,0,0,2.85-8,12.94,12.94,0,0,0-4.5-10.28,16.84,16.84,0,0,0-10.68-3.87c-.37,0-.74,0-1.12,0H917.45v56.82h21.46q9.06,0,14.16-4.21t5.1-11.73A13.49,13.49,0,0,0,954.72,162.12Zm-9.39-22.9a7.84,7.84,0,0,1,2.8,6.48,8.18,8.18,0,0,1-3.33,7q-3.33,2.44-9.63,2.45H924.54V137h12.84Q942.54,137,945.33,139.22Zm2.25,39.47q-3.32,2.56-9.73,2.56H924.54v-20h12.64q13.71,0,13.7,9.92C950.88,174.49,949.78,177,947.58,178.69Z"/><path class="cls-1" d="M364.17,216.65a21.8,21.8,0,0,1,3.11.24v-5.55a26.55,26.55,0,0,0-4.18-.32q-5.67,0-8.44,2.86t-2.78,8.76v4.57h-5.71v5.63h5.71v35.32h6.85V232.84h8.35v-5.63h-8.39v-4.53Q358.69,216.65,364.17,216.65Z"/><path class="cls-1" d="M402.91,232.23q-5.19-5.73-13.74-5.73t-13.78,5.73q-5.2,5.73-5.2,15.45t5.2,15.46q5.19,5.73,13.78,5.73t13.74-5.75q5.2-5.75,5.2-15.44T402.91,232.23Zm-5,26.62a11.57,11.57,0,0,1-17.5,0q-3.26-4-3.25-11.15t3.25-11.14a11.55,11.55,0,0,1,17.5,0c2.15,2.66,3.23,6.39,3.23,11.16S400.06,256.18,397.91,258.85Z"/><path class="cls-1" d="M431.54,226.5a10,10,0,0,0-9.92,7.4h-.16v-6.69H415v41h6.85V242.64a10,10,0,0,1,2.4-7,8.22,8.22,0,0,1,6.38-2.64,12.12,12.12,0,0,1,3.67.4v-6.66A23,23,0,0,0,431.54,226.5Z"/><path class="cls-1" d="M457.45,211.34v56.82h7.09V211.34Z"/><path class="cls-1" d="M513.92,211.34V256h-.36l-31.11-44.61h-6.89v56.82h7V223.7h.36L514,268.16h6.9V211.34Z"/><path class="cls-1" d="M566.45,217.72v-6.38H532v56.82H539V243.55H564.2v-6.3H539V217.72Z"/><path class="cls-1" d="M602.52,244.57a15.64,15.64,0,0,0,8.38-6,17.49,17.49,0,0,0,3-10.28q0-7.68-4.94-12.31t-13.17-4.62h-21.3v56.82h7.09V245.67h13.58l12.17,22.49h8.31Zm-20.91-5.16V217.64h13.27c3.67,0,6.55,1,8.62,2.87a10.37,10.37,0,0,1,3.11,8q0,5.24-3,8.07t-8.45,2.83Z"/><path class="cls-1" d="M646.26,211.34h-7l-20.94,56.82h7.44l5.71-16.26h22.6l5.71,16.26h7.44Zm-12.72,34.53,9.1-25.91h.24L652,245.87Z"/><path class="cls-1" d="M709.46,242.45q-3.86-3.67-12.68-5.87L690.84,235q-5.79-1.49-8.33-3.56a6.54,6.54,0,0,1-2.54-5.3,8.07,8.07,0,0,1,3.48-6.77,14.71,14.71,0,0,1,9-2.6,14.49,14.49,0,0,1,9,2.64,10,10,0,0,1,3.94,7.21h7.09a15.12,15.12,0,0,0-5.79-11.68q-5.55-4.55-14-4.55-8.87,0-14.47,4.49a14.15,14.15,0,0,0-5.61,11.58,12.64,12.64,0,0,0,3.62,9.39q3.62,3.6,11.5,5.61l7.28,1.89q5.75,1.5,8.37,3.82a7.54,7.54,0,0,1,2.62,5.91,8.27,8.27,0,0,1-3.76,6.91,15.79,15.79,0,0,1-9.51,2.73,17.22,17.22,0,0,1-10.1-2.79,10,10,0,0,1-4.51-7.4H671a16.06,16.06,0,0,0,6.26,12q5.76,4.53,14.81,4.52,9.81,0,15.53-4.54a14.94,14.94,0,0,0,5.73-12.35A12.79,12.79,0,0,0,709.46,242.45Z"/><path class="cls-1" d="M718.05,211.34v6.38H736v50.44h7.09V217.72H761v-6.38Z"/><path class="cls-1" d="M796.45,244.57a15.64,15.64,0,0,0,8.38-6,17.43,17.43,0,0,0,3-10.28q0-7.68-5-12.31t-13.17-4.62h-21.3v56.82h7.09V245.67h13.58l12.17,22.49h8.31Zm-20.91-5.16V217.64h13.27c3.67,0,6.55,1,8.62,2.87a10.33,10.33,0,0,1,3.11,8q0,5.24-3,8.07t-8.45,2.83Z"/><path class="cls-1" d="M854.8,211.34v36.42a14.46,14.46,0,0,1-4.11,10.69q-4.11,4.13-11.36,4.12T828,258.45a14.46,14.46,0,0,1-4.12-10.69V211.34h-7.08v36.89q0,9.26,6.08,15.07t16.48,5.8q10.39,0,16.48-5.8t6.08-15.07V211.34Z"/><path class="cls-1" d="M906.9,259.69a18.51,18.51,0,0,1-10.55,2.88A16.27,16.27,0,0,1,883,256.39q-5-6.19-5-16.66t5-16.58a16.2,16.2,0,0,1,13.31-6.22,17.06,17.06,0,0,1,10.55,3.37,15.49,15.49,0,0,1,5.87,8.95h7.16a21,21,0,0,0-7.81-13.68,24.49,24.49,0,0,0-15.77-5.18q-11.65,0-18.63,8t-7,21.36q0,13.5,6.91,21.44t18.69,7.93q9.41,0,15.51-4.52a21.57,21.57,0,0,0,8.07-13h-7.16A14.23,14.23,0,0,1,906.9,259.69Z"/><path class="cls-1" d="M921.94,211.34v6.38h17.92v50.44H947V217.72h17.91v-6.38Z"/><path class="cls-1" d="M1010.38,211.34v36.42a14.46,14.46,0,0,1-4.11,10.69q-4.12,4.13-11.36,4.12t-11.36-4.12a14.42,14.42,0,0,1-4.12-10.69V211.34h-7.08v36.89q0,9.26,6.08,15.07t16.48,5.8q10.4,0,16.48-5.8t6.08-15.07V211.34Z"/><path class="cls-1" d="M1056.49,244.57a15.66,15.66,0,0,0,8.39-6,17.49,17.49,0,0,0,3-10.28q0-7.68-4.94-12.31t-13.17-4.62h-21.3v56.82h7.08V245.67h13.59l12.17,22.49h8.31Zm-20.91-5.16V217.64h13.27c3.68,0,6.55,1,8.63,2.87a10.37,10.37,0,0,1,3.11,8q0,5.24-3,8.07c-2,1.89-4.8,2.83-8.45,2.83Z"/><path class="cls-1" d="M1112,217.72v-6.38h-35.21v56.82H1112v-6.38H1083.9V242.25h26.66V236H1083.9V217.72Z"/><path class="cls-1" d="M389.56,299.48q-7.08-7.5-19.72-7.5h-19.1V348.8h19.1a36.3,36.3,0,0,0,6.15-.5,23.55,23.55,0,0,0,13.59-7q7.08-7.5,7.07-20.93T389.56,299.48Zm-5.35,37.25q-5.2,5.7-14.85,5.69H357.83V298.36h11.53q9.69,0,14.87,5.71t5.18,16.38Q389.41,331,384.21,336.73Z"/><path class="cls-1" d="M440.64,298.36V292H405.43V348.8h35.21v-6.38H412.52V322.89h26.66v-6.3H412.52V298.36Z"/><path class="cls-1" d="M486.9,292,470,340.18h-.24L452.88,292h-7.44l20.77,56.32.18.5h7l.18-.5L494.35,292Z"/><path class="cls-1" d="M536.05,298.36V292H500.84V348.8h35.21v-6.38H507.93V322.89h26.66v-6.3H507.93V298.36Z"/><path class="cls-1" d="M552.47,342.42V292h-7.09V348.8h34.49v-6.38Z"/><path class="cls-1" d="M628.43,299q-7-7.9-19.14-7.91T590.15,299q-7,7.92-7,21.46t7,21.44a22.43,22.43,0,0,0,9.72,6.45,25.94,25.94,0,0,0,4,1,33.47,33.47,0,0,0,10.94,0,25.94,25.94,0,0,0,4-1,22.43,22.43,0,0,0,9.72-6.45q7-7.89,7-21.44T628.43,299Zm-5.34,38.1q-5.1,6.17-13.8,6.16t-13.8-6.16q-5.1-6.17-5.1-16.64t5.1-16.67q5.1-6.17,13.8-6.17t13.8,6.17q5.1,6.15,5.1,16.67T623.09,337.05Z"/><path class="cls-1" d="M677.67,297.08a17.74,17.74,0,0,0-13.1-5.1H644.29V348.8h7.09V328.52h13.11a18.63,18.63,0,0,0,13.18-31.44Zm-5.54,22q-3.35,3.18-9.41,3.17H651.38V298.28h11.34q6.1,0,9.43,3.13t3.33,8.8Q675.48,315.88,672.13,319.05Z"/><path class="cls-1" d="M738.64,292,719,339.39h-.31L699.11,292h-8.23V348.8h6.61V305h.28l18.06,43.28,0,.11h6l0-.11L740,305h.28V348.8h6.61V292Z"/><path class="cls-1" d="M793.1,298.36V292H757.9V348.8h35.2v-6.38H765V322.89h26.65v-6.3H765V298.36Z"/><path class="cls-1" d="M840.79,292V336.6h-.36L809.32,292h-6.89V348.8h7V304.35h.36l30.75,43.95.35.5h6.9V292Z"/><path class="cls-1" d="M855.28,292v6.38h17.91V348.8h7.09V298.36H898.2V292Z"/><path class="cls-1" d="M171.8,33.16a21.32,21.32,0,0,0-4-.38,21,21,0,0,0-4.92.58,22.65,22.65,0,0,0-17.12,22.23A23.26,23.26,0,0,0,149.28,68a22.62,22.62,0,0,1-18-22.43,23.29,23.29,0,0,1,3.55-12.41L153.3,0l18.48,33.14S171.79,33.16,171.8,33.16Z"/><path class="cls-1" d="M128.93,37.43a21.28,21.28,0,0,0-1.6,3.72,20.86,20.86,0,0,0-1,4.86A22.68,22.68,0,0,0,142.16,69.2a23.23,23.23,0,0,0,12.85.46A22.56,22.56,0,0,1,128.16,79.9a23.23,23.23,0,0,1-10.68-7.22L91.74,44.82l37.16-7.38Z"/><path class="cls-1" d="M119.74,79.61a21.11,21.11,0,0,0,3,2.68,21.41,21.41,0,0,0,4.31,2.43A22.6,22.6,0,0,0,154,76.82a23.35,23.35,0,0,0,4.41-12.11,22.67,22.67,0,0,1,1.42,28.75,23.21,23.21,0,0,1-10.15,8l-34.4,15.92,4.49-37.7S119.74,79.62,119.74,79.61Z"/><path class="cls-1" d="M156.92,101.41a22.41,22.41,0,0,0,3.48-2.06A21.64,21.64,0,0,0,164,96a22.71,22.71,0,0,0,.81-28.07A23.11,23.11,0,0,0,154.72,60a22.54,22.54,0,0,1,27.73,7.53,23.21,23.21,0,0,1,4.41,12.13l4.48,37.7L157,101.42Z"/><path class="cls-1" d="M189.1,72.7a22.22,22.22,0,0,0-.88-4,21.52,21.52,0,0,0-2.07-4.51,22.58,22.58,0,0,0-26.38-9.44A23.14,23.14,0,0,0,149.1,62,22.61,22.61,0,0,1,164.82,37.9a23.11,23.11,0,0,1,12.87-.46l37.16,7.38L189.12,72.68S189.1,72.69,189.1,72.7Z"/><polygon class="cls-1" points="172.61 400 133.98 400 135.16 365.97 143.95 111.77 153.3 107.44 162.65 111.77 171.44 365.97 172.61 400"/><path class="cls-1" d="M136.29,115.31l-2.59,74.82-.15,4.13a560,560,0,0,1-18.23,122.46A526.08,526.08,0,0,1,85.59,400H0c70.47-62,115.32-155.27,115.32-259.61V125L134,116.38Z"/><path class="cls-1" d="M170.31,115.31l2.58,74.82.15,4.13a560,560,0,0,0,18.24,122.46A526.05,526.05,0,0,0,221,400h85.59c-70.47-62-115.31-155.27-115.31-259.61V125l-18.68-8.64Z"/></g></g></svg>