<svg xmlns="http://www.w3.org/2000/svg" viewBox="0 0 384.17 400"><defs><style>.cls-1{fill:#fff6ed;}</style></defs><g id="Layer_2" data-name="Layer 2"><g id="Layer_1-2" data-name="Layer 1"><path class="cls-1" d="M123.3,0c.83.28,1.65.63,2.5.84,15,3.61,25.12,12.71,30,27.29,1,3,2.33,3.62,5.17,3.61q74-.1,148,0a36.33,36.33,0,0,1,4.67.16c3.15.42,4.93,2.31,5,5.48.09,3.38-1.72,5.38-5,5.9a30.39,30.39,0,0,1-4.68.16H158V64.84H372.13V43.66c-1.49-.09-2.87-.24-4.24-.24q-12.12,0-24.22,0c-1,0-2.09,0-3.12,0-3.73-.35-5.95-2.66-5.86-6a5.48,5.48,0,0,1,5.83-5.56c11.06-.11,22.13-.2,33.19.12,6,.16,10,4.53,10.24,10.76.28,7.67.29,15.37,0,23-.25,6.83-4.71,10.81-11.65,11.09-8,.31-8,.31-8,8.4V275.06c2.93,0,5.5-.07,8.06,0,6.79.25,11.36,4.45,11.6,11.22.26,7.54.26,15.11,0,22.65-.25,7.26-5,11.34-12.62,11.34q-39.45,0-78.9,0h-4.75c2.51,6.17,4.79,11.79,7.09,17.41Q305.39,363.5,316,389.29a22,22,0,0,1,1.17,3.3c.76,3.24-.41,5.7-3.5,6.93s-5.61,0-7.23-2.84a35,35,0,0,1-1.85-4.3c-9.38-22.84-18.81-45.67-28.07-68.56-1.1-2.71-2.45-3.67-5.39-3.59-8.19.22-16.39.07-25.1.07.73,1.88,1.3,3.42,1.92,4.94q13.26,32.28,26.47,64.58c.71,1.74,1.58,4.09.95,5.54a8.64,8.64,0,0,1-4.75,4.38c-2.95.89-5.16-1.07-6.33-3.91q-6.09-14.77-12.15-29.57c-6.27-15.27-12.55-30.53-18.9-45.95-5.16,0-10.24-.19-15.29.14-1.15.07-2.68,1.69-3.2,2.94-9.19,22.08-18.25,44.22-27.34,66.34-.84,2-1.59,4.12-2.51,6.13-1.66,3.6-4.75,5-7.89,3.58s-4.37-4.46-2.86-8.17c6.8-16.74,13.69-33.44,20.55-50.15,2.75-6.72,5.52-13.43,8.55-20.82h-19.7c-9.33,0-9.34,0-12.85,8.55l-26.37,64.21c-.34.84-.67,1.69-1,2.52-1.68,3.66-4.64,5.19-7.73,4-3.37-1.29-4.64-4.48-3.07-8.41,3.77-9.41,7.65-18.78,11.5-28.16q7.93-19.29,15.87-38.58c.49-1.18.86-2.41,1.47-4.12H78.69c-9.28,0-13.41-4.05-13.46-13.22,0-6.51-.06-13,0-19.53.1-8.15,4.44-12.39,12.66-12.49,2.19,0,4.37,0,7,0V182.24c0-1.3-.43-2.94.19-3.83,1.3-1.86,2.9-4.06,4.87-4.75,2.67-.95,5.13.71,6.07,3.53a16.29,16.29,0,0,1,.56,5q.06,43.94,0,87.89v4.78H352.36c.07-1.41.21-2.77.21-4.14q0-94.72.07-189.45c0-3.18-.5-4.53-4.19-4.52q-93.36.18-186.71.09c-1.15,0-2.3.12-3.8.2-.07,1.53-.18,2.91-.19,4.29,0,11.59,0,23.17,0,34.76-.1,24.15-17.48,41.57-41.65,41.65q-37.11.12-74.22,0c-24.3-.08-41.76-17.6-41.83-42s0-49,0-73.44C.07,20.41,12.51,5.18,34,.56A4.1,4.1,0,0,0,35,0Zm-1.22,145.44c1.43-.25,2.32-.33,3.15-.56A28.15,28.15,0,0,0,146,117.39c.1-25.12.06-50.23,0-75.35,0-18.36-12-30.3-30.27-30.32q-36.51,0-73,0c-19.08,0-31,11.83-31,30.88q0,36.3,0,72.61a46.88,46.88,0,0,0,.64,7.76c2,11.45,12.64,21.65,23.39,22.2V112.82C35.8,97,42.23,89,57.23,85.64c-.91-3.47-2.19-6.9-2.64-10.43a70,70,0,0,1-.13-11.31c.46-12.14,10.31-22.44,22.16-23.27,13.18-.93,24.48,7.53,26.43,20.23,1.29,8.4,1.42,16.84-2.94,24.68,15.29,3.25,22,11.52,22,26.94C122.09,123.28,122.08,134.07,122.08,145.44ZM372.14,287h-295v21.36h295Zm-262-141.12c0-13.09.19-25.82-.1-38.55-.11-4.64-4.44-9.08-9-9.5-5.24-.48-10.55-.11-16.14-.11,0,4.2.1,8.09,0,12s-2.62,6.46-5.93,6.43-5.64-2.54-5.72-6.52,0-7.75,0-12.1c-4.53,0-8.65,0-12.78,0-8,.09-12.83,4.89-12.85,12.92,0,10.8,0,21.61,0,32.41a30.23,30.23,0,0,0,.29,3ZM65.88,69l.23,0c0,1.3,0,2.6,0,3.9.26,7.24,5.57,12.68,12.55,12.87A13,13,0,0,0,91.79,73.82a52.82,52.82,0,0,0,0-9.74,12.78,12.78,0,0,0-11.2-11.74c-6.34-.68-12.2,2.93-13.87,8.92C66,63.72,66.13,66.39,65.88,69Z"/><path class="cls-1" d="M303.47,108.33c-3.06,0-6.13,0-9.19,0-4.66-.11-7.12-2.23-7.06-6s2.36-5.65,6.88-5.69q11.91-.11,23.82,0c4.72,0,6.8,2.22,6.84,7q.09,11.72,0,23.43c0,4.43-2.49,7.21-6.06,7.09s-5.57-2.74-5.63-7.05c-.05-3-.05-6-.08-9a8.35,8.35,0,0,0-.29-1c-1.08,1-2,1.71-2.82,2.54-7.37,7.35-14.86,14.6-22.05,22.12a25.46,25.46,0,0,1-19.8,8.29c-21.73-.24-43.48.07-65.21-.19a18,18,0,0,0-14.09,5.93c-17.23,17.55-34.72,34.86-52.12,52.25a18.19,18.19,0,0,1-3.19,2.84c-2.66,1.59-5.33,1.35-7.42-1a5.45,5.45,0,0,1-.39-7.18,18.59,18.59,0,0,1,2.37-2.58c18-18,36.14-36,54.07-54.16a24.87,24.87,0,0,1,18.84-7.77c22.52.13,45,0,67.56.11a13.89,13.89,0,0,0,10.72-4.5c8.08-8.29,16.34-16.41,24.53-24.59Z"/><path class="cls-1" d="M257.35,213.73c0-10.94,0-21.88,0-32.82,0-9.28,4.63-13.8,14-13.82,5.47,0,10.94-.08,16.41,0,6.79.13,12,5,12,11.82q.18,34.76,0,69.52c0,6.81-5.13,11.65-12,11.84-5.07.14-10.17-.26-15.22.11-10.22.75-15.68-5.56-15.28-15.05C257.69,234.83,257.35,224.27,257.35,213.73Zm12-34.76v69.42H287.8V179Z"/><path class="cls-1" d="M245.87,225.09c0,7.42,0,14.84,0,22.26-.07,8-4.95,12.87-12.9,13-5.6.07-11.2.08-16.79,0-7.69-.11-12.67-4.69-12.76-12.26q-.27-23,0-46.08c.08-7.6,5.05-12.27,12.65-12.38q8.58-.14,17.18,0c7.69.13,12.55,5.06,12.63,12.84C245.93,210,245.87,217.54,245.87,225.09Zm-12,23.33v-46.9H215.31v46.9Z"/><path class="cls-1" d="M191.9,237.87c0,3.38.1,6.77,0,10.15-.27,7.28-5.15,12.15-12.4,12.29-6,.11-12,.12-18,0-6.74-.15-11.74-4.65-12.06-11.34-.34-7.27-.33-14.58,0-21.85.3-6.9,5.38-11.43,12.3-11.53,5.85-.08,11.71-.07,17.56,0,7.23.08,12.25,4.92,12.56,12.14C192,231.1,191.9,234.49,191.9,237.87ZM180,248.36V227.59H161.35v20.77Z"/></g></g></svg>